<?xml version="1.0" encoding="utf-8"?>
<!-- Generator: Adobe Illustrator 27.9.0, SVG Export Plug-In . SVG Version: 6.00 Build 0)  -->
<svg version="1.1" xmlns="http://www.w3.org/2000/svg" xmlns:xlink="http://www.w3.org/1999/xlink" x="0px" y="0px"
	 viewBox="0 0 3041.43 1768.36" style="enable-background:new 0 0 3041.43 1768.36;" xml:space="preserve">
<style type="text/css">
	.st0{fill:#1C1315;}
	.st1{fill:#BABCBE;}
	.st2{fill:#E5E5E6;}
	.st3{fill:#A5A7AA;}
	.st4{fill:#FFFFFF;}
	.st5{fill:#FD0000;stroke:#000000;stroke-width:3;stroke-miterlimit:10;}
	.st6{font-family:'Sketter';}
	.st7{font-size:495.9155px;}
	.st8{fill:#FFFFFF;stroke:#000000;stroke-miterlimit:10;}
	.st9{font-size:252.3074px;}
</style>
<g id="Background">
</g>
<g id="Layer_1">
	<rect x="-8.25" y="1" class="st0" width="3057.94" height="1768.36"/>
	<g id="XMLID_32_">
		<g id="XMLID_2907_">
			<path id="XMLID_38_" class="st1" d="M960.45,377.01c0,0,85.66,82.89,66.7,120.13c0,0-26.95,72.47-53.24,87.71
				c-26.29,15.25-40.31,25.12-60.96,2.43c0,0-56.27-59.36-61.2-75.87c0,0,17.89,155.5,86.3,180.61c0,0,16.77,12.26,64.39-14.19
				c47.62-26.45,85.91,6.25,85.91,6.25l669.52,478.69c0,0,37.25,26.62,42.84,53.11c5.59,26.48,21.33,99.86,44.16,116.93
				c0,0,57.9,49.31,112.97,50.4c0,0-80.52-78.61-67.89-111.2c12.63-32.6,34.03-84.9,49.52-89.82c15.49-4.92,46.03-36.95,69.14-6.01
				c23.12,30.94,57.43,70.99,57.43,70.99s-9.51-127.43-80.24-175.8c0,0-28.46-23.01-69.96,11.03
				c-41.5,34.04-84.49-4.07-102.18-16.86l-660.68-472.3c0,0-33.97-23.39-37.82-54.37c-3.85-30.98-17.24-101.65-59.01-125.36
				S960.45,377.01,960.45,377.01z"/>
			<path id="XMLID_39_" d="M1881.57,1364.36c-21.95-12.46-37.38-25.32-39.24-26.9c-22.07-16.68-36.87-76.57-46.08-120.21
				c-4.2-19.88-30.82-42.61-40.72-49.68l-669.69-478.81l-0.15-0.13c-1.48-1.25-36.82-30.46-81.33-5.74
				c-45.25,25.14-64.22,16.67-68.1,14.3c-3.16-1.19-6.22-2.64-9.17-4.31c-62.5-35.46-79.2-174.52-79.91-180.71l0,0
				c-0.76-6.65,7.03-8.98,8.91-2.67v0c3.29,11.04,38.49,50.97,59.89,73.56c17.46,19.18,28.39,12.81,52.33-1.15l3.61-2.1
				c24.49-14.2,50.76-84.26,51.02-84.96l0.12-0.33l0.16-0.31c12.24-24.04-33.77-81.97-65.65-112.83l0,0
				c-3.77-3.65-0.96-10.97,3.77-9.85l0,0c2.22,0.53,54.97,13.19,96.78,36.91c44.19,25.08,57.81,98.98,61.61,129.59
				c3.48,27.98,35.22,50.13,35.54,50.35l660.74,472.35c1.48,1.07,3.12,2.3,4.91,3.65c19.82,14.9,56.7,42.62,92.34,13.39
				c42.39-34.77,72.2-13.31,74.94-11.19c71.88,49.3,82.04,174.75,82.43,180.07v0c0.38,5.15-4.72,8.12-7.8,4.53l0,0
				c-0.34-0.4-34.69-40.53-57.65-71.26c-14.18-18.98-30.54-11.43-50.45,0.42c-5.36,3.19-9.99,5.94-14.1,7.25
				c-9.75,3.1-25.4,32.29-46.51,86.79c-8.08,20.84,36.57,75.15,66.61,104.48l0,0c3.42,3.34,1.42,10.02-2.97,9.93l0,0
				C1930.54,1388.25,1902.96,1376.5,1881.57,1364.36z M1090.84,679.37l669.38,478.59c1.59,1.14,38.96,28.13,44.96,56.53
				c13.66,64.67,27.83,102.88,42.11,113.56l0.23,0.18c0.52,0.44,47.96,40.37,96.52,48.11c-7.62-8.1-18.2-19.84-28.24-32.68
				c-26.42-33.79-36.25-58.01-30.04-74.04c23.28-60.07,39.48-88.71,52.53-92.85c3.22-1.02,7.66-3.67,12.37-6.47
				c16.48-9.81,41.39-24.63,61.36,2.11c15.24,20.4,35.59,45.03,47.46,59.18c-5.22-35.25-22.89-119.09-75.96-155.38l-0.29-0.22
				c-1.05-0.83-26.62-20.31-64.81,11.01c-40.59,33.29-82.33,1.92-102.38-13.15c-1.74-1.31-3.33-2.5-4.75-3.53l-660.66-472.29
				c-1.4-0.96-35.9-25.07-40.04-58.35c-3.58-28.83-16.25-98.35-56.41-121.14c-26.03-14.77-57.15-25.32-76.41-31.06
				c24.66,26.61,68.96,80.81,53.45,112.25c-2.24,5.98-28.47,74.56-55.33,90.14l-3.59,2.09c-19.3,11.25-33.41,19.48-49.37,10.42
				c-4.2-2.38-8.52-5.96-13.1-10.99c-4.22-4.45-32.72-34.7-49.86-57.49c7.97,43.59,30.24,134.7,79.41,152.75l0.55,0.2l0.49,0.36
				c0.09,0.05,16.18,9.9,60.08-14.49C1048.88,645.89,1087.59,676.66,1090.84,679.37z"/>
		</g>
		<g id="XMLID_1690_">
			<path id="XMLID_00000085940842466254551500000013577323132603388326_" class="st2" d="M864.15,545.18
				c0,0,12.96,30.76,35.91,53.14c17.17,16.74,39.79,22.85,61.28,16.82c16.81-4.72,41.16-7.9,47.82,10.28
				c10.45,28.56-24.21,49.33-24.21,49.33s-50.16,25.7-76.13-21.27C882.85,606.53,864.15,545.18,864.15,545.18z"/>
		</g>
		<g id="XMLID_35_">
			<path id="XMLID_00000139276126425734202080000000379685225699896498_" class="st2" d="M2048.01,1210.15c0,0-9.23-21.9-25.9-42.18
				c-19.46-23.68-47.68-33.62-74.71-26.86c-16.53,4.14-38.18,5.8-44.4-11.19c-10.45-28.56,24.21-49.33,24.21-49.33
				s50.16-25.7,76.13,21.26C2029.32,1148.81,2048.01,1210.15,2048.01,1210.15z"/>
		</g>
		<g id="XMLID_29_">
			<path id="XMLID_00000173879880183226622210000012688975437126477488_" d="M1107.22,531.61c0,0-41.89,115.41-85.86,129.53
				l28.87-1.44C1050.23,659.7,1103.31,608.92,1107.22,531.61z"/>
		</g>
		<g id="XMLID_34_">
			<path id="XMLID_00000057109818500904418420000006622321867916278194_" d="M1893.69,1103.58c0,0-76.12,86.02-72.58,140.93
				l-8.43-33.45C1812.69,1211.05,1834.71,1133.62,1893.69,1103.58z"/>
		</g>
		<g id="XMLID_31_">
			<path id="XMLID_00000162312510632245571360000010239747735258676654_" d="M1118.37,571.53c0,0-10.25,14.75,40.81,43.73
				l489.68,355.38c0,0,11.23,10.48,17.99,4.72c0,0-1.81,23.66-39.14-7.13L1130.99,616.4C1130.99,616.4,1102.16,597.3,1118.37,571.53
				z"/>
		</g>
		<g id="XMLID_37_">
			<path id="XMLID_00000169527406203215715870000010989824506109801611_" d="M1201.85,715.58c0,0-10.25,14.75,40.81,43.73
				l489.68,355.38c0,0,11.23,10.48,17.99,4.72c0,0-1.81,23.66-39.14-7.13l-496.72-351.83
				C1214.47,760.45,1185.64,741.34,1201.85,715.58z"/>
		</g>
		<g id="XMLID_13_">
			<path id="XMLID_00000139992219812327436500000007458799276591318690_" class="st2" d="M1064.83,655.64c0,0,29.93-5.64,31.82-3.2
				c1.89,2.44,85.12,68.19,85.12,68.19l-12.76,15.39L1064.83,655.64z"/>
		</g>
		<g id="XMLID_36_">
			<path id="XMLID_00000114072862248471284160000005000170568506729362_" class="st2" d="M1795.54,1096.62
				c0,0-8.81-35.08-11.45-36.07c-2.64-0.99-87.74-63.16-87.74-63.16l-5.9,20.59L1795.54,1096.62z"/>
		</g>
	</g>
	<g id="XMLID_00000150090264503392089650000000944761559644321422_">
		<g id="XMLID_3556_">
			<g id="XMLID_3563_">
				<g id="XMLID_3564_">
					<g id="XMLID_3565_">
						<polygon id="XMLID_3566_" class="st3" points="2016.73,440.17 1879.13,505.5 1920.15,638.95 1993.2,573.96 2028.02,454.87 
													"/>
					</g>
				</g>
			</g>
			<g id="XMLID_3557_">
				<g id="XMLID_3558_">
					<g id="XMLID_3559_">
						<path id="XMLID_3560_" d="M1920.15,638.95l-46.09-136.16l143.75-68.25l14.75,19.21l-36,123.16L1920.15,638.95z
							 M2023.47,455.98l-7.82-10.19l-131.46,62.41l37.56,122.83l68.09-60.02L2023.47,455.98z"/>
					</g>
				</g>
			</g>
		</g>
		<g id="XMLID_3551_">
			<g id="XMLID_3552_">
				<g id="XMLID_3553_">
					<g id="XMLID_3554_">
						<polygon id="XMLID_3555_" points="1908.48,614.09 1981.77,555.61 2016.73,440.17 2028.02,454.87 1993.2,573.96 
							1920.15,638.95 						"/>
					</g>
				</g>
			</g>
		</g>
		<g id="XMLID_3540_">
			<g id="XMLID_3547_">
				<g id="XMLID_3548_">
					<g id="XMLID_3549_">
						<path id="XMLID_3550_" class="st3" d="M1920.15,638.95l-66.21-229.5l10.88-65.93l104.89-48.91c0,0-77.12-62.49-131.98-41.19
							c-54.86,21.3-104.46,83.19-121.97,191.1c-17.5,107.91-40.84,144.97-58.45,164.2c-17.61,19.23-550.41,581.75-582.11,616.37
							c-31.7,34.61-30.1,83.06-10.76,108.26s67.15,57.94,105.89,15.63c38.74-42.3,521.39-619.55,543.99-636.51
							c22.59-16.95,139.37-67.25,139.37-67.25L1920.15,638.95z"/>
					</g>
				</g>
			</g>
			<g id="XMLID_3541_">
				<g id="XMLID_3542_">
					<g id="XMLID_3543_">
						<path id="XMLID_3544_" d="M1061.51,1336.56c-20.68-26.93-22.35-78.55,11-114.97c18.18-19.86,198.15-210.14,356.94-378.03
							c116.8-123.5,217.68-230.15,225.17-238.34c16.18-17.67,39.72-53.65,57.23-161.6c16.09-99.23,61.55-170.2,124.64-194.71
							c56.08-21.78,132.24,39.17,135.46,41.77l5.23,4.86l-108.88,51.45l-10.25,62.13l62.09,229.83l-65.6,10.96
							c-8.3,3.59-116.86,50.65-138.1,66.59c-13.72,10.3-213.49,246.78-359.36,419.45c-90.92,107.62-169.43,200.57-184.06,216.54
							c-6.8,7.42-13.91,12.67-21.14,16.12C1117.26,1385.14,1079.91,1360.52,1061.51,1336.56z M1852.34,640.77l0.5-0.21l61.58-6.15
							l-64.24-223.41l-0.35-1.21l11.51-69.74l99.58-46.43c-19.53-14.1-78.64-52.5-121.96-35.67
							c-60.26,23.41-103.76,91.74-119.29,187.49c-17.76,109.48-41.21,146.65-59.67,166.8c-7.54,8.24-108.44,114.92-225.27,238.44
							c-158.76,167.86-338.7,358.12-356.84,377.93c-29.73,32.47-28.6,77.99-10.51,101.56c20.16,26.25,65.2,53.63,100.26,15.34
							c14.51-15.84,92.97-108.73,183.83-216.28c154.27-182.62,346.26-409.89,360.73-420.75c8.45-6.34,29.37-17.06,52.56-28.12
							C1803.84,661.69,1849.33,642.06,1852.34,640.77z"/>
					</g>
				</g>
			</g>
		</g>
		<g id="XMLID_3535_">
			<g id="XMLID_3536_">
				<g id="XMLID_3537_">
					<g id="XMLID_3538_">
						<path id="XMLID_3539_" d="M1714.33,712.49c-22.6,16.95-505.25,594.2-543.99,636.51c-38.74,42.3-86.54,9.57-105.89-15.63
							c37.38,40.25,79.65,24.4,104.3-2.53c24.65-26.92,548.08-640.38,548.08-640.38c36.68-32.34,129.1-63.76,129.1-63.76
							l65.88-16.01l8.34,28.27l-66.46,6.28C1853.69,645.23,1736.92,695.53,1714.33,712.49z"/>
					</g>
				</g>
			</g>
		</g>
		<g id="XMLID_3524_">
			<g id="XMLID_3531_">
				<g id="XMLID_3532_">
					<g id="XMLID_3533_">
						<path id="XMLID_3534_" class="st2" d="M1126.84,1199.59c0,0,26.99,1.42,44.73,24.52c19.35,25.2,13.32,51.08,13.32,51.08
							l521-594.94c11.47-13.09,12.06-34.71,1.34-48.67l0,0c-10.77-14.03-28.98-15.16-40.91-2.54L1126.84,1199.59z"/>
					</g>
				</g>
			</g>
			<g id="XMLID_3525_">
				<g id="XMLID_3526_">
					<g id="XMLID_3527_">
						<path id="XMLID_3528_" d="M1181.06,1273.92c0.06-0.23,3.91-21.51-13.75-44.5c-16.28-21.2-40.13-25.06-40.64-25.09l-9.82-0.52
							l546.83-578.33c13.47-14.25,34.33-12.96,46.49,2.88c12.09,15.74,11.4,40.55-1.52,55.31l-531.47,606.89L1181.06,1273.92z
							 M1668.96,632.6l-533,563.7c9.95,2.37,26.23,8.56,38.54,24.61c11.96,15.58,14.92,31.4,15.24,42.16l513.39-586.24
							c9.82-11.22,10.34-30.08,1.16-42.04c-7.25-9.44-18.57-12.08-28.05-7.56C1673.64,628.47,1671.17,630.26,1668.96,632.6z"/>
					</g>
				</g>
			</g>
		</g>
		<g id="XMLID_3513_">
			<g id="XMLID_3520_">
				<g id="XMLID_3521_">
					<g id="XMLID_3522_">
						<path id="XMLID_3523_" class="st2" d="M1149.38,1321.69c19.45-21.24,20.78-57.26,2.97-80.46
							c-17.81-23.19-48.02-24.78-67.47-3.54c-19.45,21.24-20.78,57.26-2.97,80.46C1099.72,1341.35,1129.93,1342.93,1149.38,1321.69z
							"/>
					</g>
				</g>
			</g>
			<g id="XMLID_3514_">
				<g id="XMLID_3515_">
					<g id="XMLID_3516_">
						<path id="XMLID_3517_" d="M1078.97,1321.36c-9.33-12.15-14.14-27.92-13.53-44.38c0.61-16.46,6.56-31.66,16.75-42.79
							c21.03-22.97,53.82-21.25,73.09,3.83c9.33,12.15,14.14,27.92,13.53,44.38c-0.61,16.47-6.55,31.66-16.75,42.79
							c-4.73,5.16-10.04,9.07-15.66,11.76C1116.99,1346.22,1093.91,1340.81,1078.97,1321.36z M1087.57,1241.2
							c-17.8,19.44-19.02,52.52-2.72,73.75c16.3,21.23,44.03,22.69,61.84,3.25l0,0c17.8-19.44,19.02-52.52,2.72-73.75
							c-12.64-16.46-32.16-21.03-48.59-13.19C1096.06,1233.52,1091.57,1236.83,1087.57,1241.2z"/>
					</g>
				</g>
			</g>
		</g>
		<g id="XMLID_3502_">
			<g id="XMLID_3509_">
				<g id="XMLID_3510_">
					<g id="XMLID_3511_">
						<polygon id="XMLID_3512_" class="st4" points="1847.86,574.39 1817.39,484.12 1727.9,527.79 1753.38,615.78 						"/>
					</g>
				</g>
			</g>
			<g id="XMLID_3503_">
				<g id="XMLID_3504_">
					<g id="XMLID_3505_">
						<path id="XMLID_3506_" d="M1750.94,621.91l-28.04-96.82l96.68-47.18l33.5,99.25L1750.94,621.91z M1732.89,530.48l22.93,79.17
							l86.81-38.03l-27.44-81.3L1732.89,530.48z"/>
					</g>
				</g>
			</g>
		</g>
		<g id="XMLID_3497_">
			<g id="XMLID_3498_">
				<g id="XMLID_3499_">
					<g id="XMLID_3500_">
						<polygon id="XMLID_3501_" points="1830.54,585.57 1801.98,489.36 1757.24,511.19 1780.81,605.13 						"/>
					</g>
				</g>
			</g>
		</g>
		<g id="XMLID_3481_">
			<g id="XMLID_3492_">
				<g id="XMLID_3493_">
					<g id="XMLID_3494_">
						<g id="XMLID_3495_">
							<polygon id="XMLID_3496_" points="1747.82,527.35 1751.71,539.74 1818.27,510.1 1814.39,497.7 							"/>
						</g>
					</g>
				</g>
			</g>
			<g id="XMLID_3487_">
				<g id="XMLID_3488_">
					<g id="XMLID_3489_">
						<g id="XMLID_3490_">
							<polygon id="XMLID_3491_" points="1756.85,555.08 1760.73,567.47 1827.3,537.83 1823.42,525.43 							"/>
						</g>
					</g>
				</g>
			</g>
			<g id="XMLID_3482_">
				<g id="XMLID_3483_">
					<g id="XMLID_3484_">
						<g id="XMLID_3485_">
							<polygon id="XMLID_3486_" points="1765.56,584.32 1769.44,596.71 1836.01,567.07 1832.13,554.67 							"/>
						</g>
					</g>
				</g>
			</g>
		</g>
		<g id="XMLID_3476_">
			<g id="XMLID_3477_">
				<g id="XMLID_3478_">
					<g id="XMLID_3479_">
						<polygon id="XMLID_3480_" points="1753.38,615.78 1727.9,527.79 1739.97,523.56 1766.03,610.92 						"/>
					</g>
				</g>
			</g>
		</g>
		<g id="XMLID_3471_">
			<g id="XMLID_3472_">
				<g id="XMLID_3473_">
					<g id="XMLID_3474_">
						<path id="XMLID_3475_" d="M1894.91,629.78c0,0,18.56,46.66-7.85,60.05c-26.41,13.39-34.4-44.8-34.4-44.8
							S1870.66,615.07,1894.91,629.78z"/>
					</g>
				</g>
			</g>
		</g>
		<g id="XMLID_3466_">
			<g id="XMLID_3467_">
				<g id="XMLID_3468_">
					<g id="XMLID_3469_">
						<path id="XMLID_3470_" d="M1108.79,1335.75c-9.99-2.1-19.5-7.99-26.88-17.6c-17.81-23.19-16.48-59.22,2.97-80.46
							c19.45-21.24,49.66-19.65,67.47,3.54c1.43,1.87,2.73,3.83,3.92,5.85l3.85,12.69c0,0-32.25-42-63.95-7.39
							C1066.51,1284.79,1086.94,1323.33,1108.79,1335.75z"/>
					</g>
				</g>
			</g>
		</g>
		<g id="XMLID_3461_">
			<g id="XMLID_3462_">
				<g id="XMLID_3463_">
					<g id="XMLID_3464_">
						<path id="XMLID_3465_" d="M1707.23,631.58c0,0-20.15-5.16-42.75,11.79c-22.6,16.95-520.92,561.13-520.92,561.13l-16.72-4.91
							c0,0,513.14-554.11,539.48-570.55C1692.66,612.6,1707.23,631.58,1707.23,631.58z"/>
					</g>
				</g>
			</g>
		</g>
		<g id="XMLID_3456_">
			<g id="XMLID_3457_">
				<g id="XMLID_3458_">
					<g id="XMLID_3459_">
						<polygon id="XMLID_3460_" points="1977.19,295.54 1975.42,315.45 1862.02,365.93 1864.82,343.52 						"/>
					</g>
				</g>
			</g>
		</g>
		<g id="XMLID_3451_">
			<g id="XMLID_3452_">
				<g id="XMLID_3453_">
					<g id="XMLID_3454_">
						<path id="XMLID_3455_" d="M1141.85,1260.43c4,4.27,6.54,10.29,7.63,16.56c2.72,15.75-5.16,33.14-17.88,38.45
							c-19.11,7.97-35.63-3.72-36.12-19.79c1.88,8.93,17.81,10.61,25.32,8.43c7.5-2.17,13.15-10.15,15.41-18.95
							c2.26-8.8-2.51-25.59-4.14-34.59L1141.85,1260.43z"/>
					</g>
				</g>
			</g>
		</g>
		<g id="XMLID_3017_">
			<g id="XMLID_3445_">
				<g id="XMLID_3446_">
					<g id="XMLID_3447_">
						<g id="XMLID_3448_">
							<g id="XMLID_3449_">
								<path id="XMLID_3450_" d="M1710.75,654.89c-0.18-3.23-0.67-6.35-1.26-9.42c-0.59-3.07-1.29-6.1-2.11-9.09
									c-0.81-2.99-1.75-5.93-2.78-8.82c-1.04-2.9-2.19-5.75-3.65-8.49c0.18,3.23,0.66,6.35,1.25,9.42
									c0.59,3.07,1.29,6.1,2.11,9.09c0.81,2.99,1.75,5.92,2.79,8.82C1708.15,649.3,1709.3,652.16,1710.75,654.89z"/>
							</g>
						</g>
					</g>
				</g>
			</g>
			<g id="XMLID_3439_">
				<g id="XMLID_3440_">
					<g id="XMLID_3441_">
						<g id="XMLID_3442_">
							<g id="XMLID_3443_">
								<path id="XMLID_3444_" d="M1703.08,663.08c-0.1-3.66-0.51-7.22-1.02-10.75c-0.52-3.53-1.14-7.02-1.89-10.48
									c-0.74-3.46-1.61-6.88-2.58-10.27c-0.97-3.39-2.06-6.74-3.45-10c0.1,3.66,0.5,7.22,1.02,10.75
									c0.52,3.53,1.14,7.02,1.89,10.48c0.74,3.46,1.61,6.88,2.58,10.27C1700.61,656.47,1701.69,659.82,1703.08,663.08z"/>
							</g>
						</g>
					</g>
				</g>
			</g>
			<g id="XMLID_3433_">
				<g id="XMLID_3434_">
					<g id="XMLID_3435_">
						<g id="XMLID_3436_">
							<g id="XMLID_3437_">
								<path id="XMLID_3438_" d="M1695.42,671.27c-0.63-4.65-1.57-9.18-2.6-13.66c-1.02-4.49-2.22-8.91-3.45-13.31
									c-1.29-4.38-2.62-8.75-4.13-13.04c-1.49-4.3-3.08-8.56-4.98-12.69c0.63,4.65,1.56,9.18,2.6,13.66
									c1.02,4.49,2.22,8.91,3.46,13.31c1.29,4.38,2.62,8.75,4.13,13.04C1691.93,662.87,1693.53,667.13,1695.42,671.27z"/>
							</g>
						</g>
					</g>
				</g>
			</g>
			<g id="XMLID_3427_">
				<g id="XMLID_3428_">
					<g id="XMLID_3429_">
						<g id="XMLID_3430_">
							<g id="XMLID_3431_">
								<path id="XMLID_3432_" d="M1687.76,679.45c-0.62-5.09-1.54-10.07-2.57-15.02c-1.01-4.95-2.2-9.83-3.43-14.7
									c-1.28-4.85-2.61-9.68-4.11-14.45c-1.48-4.78-3.07-9.51-4.97-14.13c0.61,5.09,1.54,10.08,2.57,15.02
									c1.01,4.95,2.2,9.83,3.43,14.7c1.29,4.85,2.61,9.68,4.11,14.45C1684.27,670.09,1685.87,674.83,1687.76,679.45z"/>
							</g>
						</g>
					</g>
				</g>
			</g>
			<g id="XMLID_3421_">
				<g id="XMLID_3422_">
					<g id="XMLID_3423_">
						<g id="XMLID_3424_">
							<g id="XMLID_3425_">
								<path id="XMLID_3426_" d="M1680.09,687.64c-0.62-5.09-1.54-10.07-2.57-15.02c-1.01-4.95-2.2-9.83-3.43-14.7
									c-1.28-4.85-2.6-9.68-4.11-14.45c-1.48-4.78-3.07-9.51-4.97-14.13c0.62,5.09,1.54,10.08,2.57,15.02
									c1.01,4.95,2.2,9.83,3.43,14.7c1.29,4.85,2.61,9.68,4.11,14.45C1676.61,678.28,1678.2,683.01,1680.09,687.64z"/>
							</g>
						</g>
					</g>
				</g>
			</g>
			<g id="XMLID_3415_">
				<g id="XMLID_3416_">
					<g id="XMLID_3417_">
						<g id="XMLID_3418_">
							<g id="XMLID_3419_">
								<path id="XMLID_3420_" d="M1672.43,695.82c-0.62-5.09-1.54-10.08-2.57-15.02c-1.01-4.95-2.2-9.83-3.43-14.7
									c-1.28-4.85-2.61-9.68-4.11-14.45c-1.48-4.78-3.08-9.51-4.97-14.13c0.62,5.1,1.54,10.08,2.57,15.02
									c1.01,4.95,2.2,9.83,3.43,14.7c1.29,4.85,2.61,9.68,4.11,14.45C1668.95,686.46,1670.54,691.2,1672.43,695.82z"/>
							</g>
						</g>
					</g>
				</g>
			</g>
			<g id="XMLID_3409_">
				<g id="XMLID_3410_">
					<g id="XMLID_3411_">
						<g id="XMLID_3412_">
							<g id="XMLID_3413_">
								<path id="XMLID_3414_" d="M1664.77,704.01c-0.62-5.09-1.54-10.07-2.57-15.02c-1.01-4.95-2.2-9.83-3.43-14.7
									c-1.28-4.85-2.61-9.68-4.11-14.45c-1.48-4.78-3.07-9.51-4.97-14.13c0.61,5.1,1.54,10.08,2.57,15.02
									c1.01,4.95,2.2,9.83,3.43,14.7c1.29,4.85,2.61,9.68,4.11,14.45C1661.29,694.65,1662.88,699.38,1664.77,704.01z"/>
							</g>
						</g>
					</g>
				</g>
			</g>
			<g id="XMLID_3403_">
				<g id="XMLID_3404_">
					<g id="XMLID_3405_">
						<g id="XMLID_3406_">
							<g id="XMLID_3407_">
								<path id="XMLID_3408_" d="M1657.11,712.19c-0.62-5.09-1.54-10.07-2.57-15.02c-1.01-4.95-2.2-9.83-3.43-14.7
									c-1.28-4.85-2.6-9.68-4.11-14.45c-1.48-4.77-3.07-9.51-4.97-14.13c0.61,5.09,1.54,10.08,2.57,15.02
									c1.01,4.95,2.2,9.83,3.43,14.7c1.29,4.85,2.61,9.68,4.11,14.45C1653.62,702.83,1655.21,707.57,1657.11,712.19z"/>
							</g>
						</g>
					</g>
				</g>
			</g>
			<g id="XMLID_3397_">
				<g id="XMLID_3398_">
					<g id="XMLID_3399_">
						<g id="XMLID_3400_">
							<g id="XMLID_3401_">
								<path id="XMLID_3402_" d="M1649.45,720.38c-0.62-5.09-1.54-10.08-2.57-15.02c-1.01-4.95-2.2-9.83-3.43-14.7
									c-1.28-4.85-2.61-9.68-4.11-14.45c-1.48-4.77-3.08-9.51-4.97-14.13c0.62,5.09,1.54,10.08,2.57,15.02
									c1.01,4.95,2.2,9.83,3.43,14.7c1.29,4.85,2.61,9.68,4.11,14.45C1645.96,711.02,1647.55,715.76,1649.45,720.38z"/>
							</g>
						</g>
					</g>
				</g>
			</g>
			<g id="XMLID_3391_">
				<g id="XMLID_3392_">
					<g id="XMLID_3393_">
						<g id="XMLID_3394_">
							<g id="XMLID_3395_">
								<path id="XMLID_3396_" d="M1641.78,728.56c-0.62-5.09-1.54-10.08-2.57-15.02c-1.01-4.95-2.2-9.83-3.43-14.7
									c-1.28-4.85-2.6-9.68-4.11-14.45c-1.48-4.78-3.07-9.51-4.97-14.13c0.62,5.1,1.54,10.08,2.57,15.02
									c1.01,4.95,2.2,9.83,3.43,14.7c1.29,4.85,2.61,9.68,4.11,14.45C1638.3,719.21,1639.89,723.94,1641.78,728.56z"/>
							</g>
						</g>
					</g>
				</g>
			</g>
			<g id="XMLID_3385_">
				<g id="XMLID_3386_">
					<g id="XMLID_3387_">
						<g id="XMLID_3388_">
							<g id="XMLID_3389_">
								<path id="XMLID_3390_" d="M1634.12,736.75c-0.62-5.09-1.54-10.07-2.57-15.02c-1.01-4.95-2.2-9.83-3.43-14.7
									c-1.28-4.85-2.61-9.68-4.11-14.45c-1.48-4.78-3.07-9.51-4.97-14.13c0.62,5.09,1.54,10.08,2.57,15.02
									c1.01,4.95,2.2,9.83,3.43,14.7c1.29,4.85,2.61,9.68,4.11,14.45C1630.64,727.39,1632.23,732.13,1634.12,736.75z"/>
							</g>
						</g>
					</g>
				</g>
			</g>
			<g id="XMLID_3379_">
				<g id="XMLID_3380_">
					<g id="XMLID_3381_">
						<g id="XMLID_3382_">
							<g id="XMLID_3383_">
								<path id="XMLID_3384_" d="M1626.46,744.94c-0.62-5.09-1.54-10.07-2.57-15.02c-1.01-4.95-2.2-9.83-3.43-14.7
									c-1.28-4.85-2.6-9.68-4.11-14.45c-1.48-4.78-3.07-9.51-4.97-14.13c0.61,5.1,1.54,10.08,2.57,15.02
									c1.01,4.95,2.2,9.83,3.43,14.7c1.29,4.85,2.61,9.68,4.11,14.45C1622.97,735.58,1624.56,740.31,1626.46,744.94z"/>
							</g>
						</g>
					</g>
				</g>
			</g>
			<g id="XMLID_3373_">
				<g id="XMLID_3374_">
					<g id="XMLID_3375_">
						<g id="XMLID_3376_">
							<g id="XMLID_3377_">
								<path id="XMLID_3378_" d="M1618.8,753.12c-0.62-5.09-1.54-10.07-2.57-15.02c-1.01-4.95-2.2-9.83-3.43-14.7
									c-1.28-4.85-2.6-9.68-4.11-14.45c-1.48-4.78-3.07-9.51-4.97-14.13c0.62,5.09,1.54,10.08,2.57,15.02
									c1.01,4.95,2.2,9.83,3.43,14.7c1.29,4.85,2.61,9.68,4.11,14.45C1615.31,743.76,1616.9,748.5,1618.8,753.12z"/>
							</g>
						</g>
					</g>
				</g>
			</g>
			<g id="XMLID_3367_">
				<g id="XMLID_3368_">
					<g id="XMLID_3369_">
						<g id="XMLID_3370_">
							<g id="XMLID_3371_">
								<path id="XMLID_3372_" d="M1611.13,761.31c-0.62-5.09-1.54-10.07-2.57-15.02c-1.01-4.95-2.2-9.83-3.43-14.7
									c-1.28-4.85-2.61-9.68-4.11-14.45c-1.48-4.78-3.07-9.51-4.97-14.13c0.62,5.1,1.54,10.08,2.57,15.02
									c1.01,4.95,2.2,9.83,3.43,14.7c1.29,4.85,2.61,9.68,4.11,14.45C1607.65,751.95,1609.24,756.68,1611.13,761.31z"/>
							</g>
						</g>
					</g>
				</g>
			</g>
			<g id="XMLID_3361_">
				<g id="XMLID_3362_">
					<g id="XMLID_3363_">
						<g id="XMLID_3364_">
							<g id="XMLID_3365_">
								<path id="XMLID_3366_" d="M1603.47,769.49c-0.62-5.09-1.54-10.07-2.57-15.02c-1.01-4.95-2.2-9.83-3.43-14.7
									c-1.28-4.85-2.61-9.68-4.11-14.45c-1.48-4.78-3.07-9.51-4.97-14.13c0.61,5.09,1.54,10.08,2.57,15.02
									c1.01,4.95,2.2,9.83,3.43,14.7c1.29,4.85,2.61,9.68,4.11,14.45C1599.99,760.13,1601.58,764.87,1603.47,769.49z"/>
							</g>
						</g>
					</g>
				</g>
			</g>
			<g id="XMLID_3355_">
				<g id="XMLID_3356_">
					<g id="XMLID_3357_">
						<g id="XMLID_3358_">
							<g id="XMLID_3359_">
								<path id="XMLID_3360_" d="M1595.81,777.68c-0.62-5.09-1.54-10.07-2.57-15.02c-1.01-4.95-2.2-9.83-3.43-14.7
									c-1.28-4.85-2.6-9.68-4.11-14.45c-1.48-4.78-3.07-9.51-4.97-14.14c0.62,5.1,1.54,10.08,2.57,15.02
									c1.01,4.95,2.2,9.83,3.43,14.7c1.29,4.85,2.61,9.68,4.11,14.45C1592.32,768.32,1593.91,773.05,1595.81,777.68z"/>
							</g>
						</g>
					</g>
				</g>
			</g>
			<g id="XMLID_3349_">
				<g id="XMLID_3350_">
					<g id="XMLID_3351_">
						<g id="XMLID_3352_">
							<g id="XMLID_3353_">
								<path id="XMLID_3354_" d="M1588.15,785.86c-0.62-5.09-1.54-10.07-2.57-15.02c-1.01-4.95-2.2-9.83-3.43-14.7
									c-1.28-4.85-2.61-9.68-4.11-14.45c-1.48-4.78-3.08-9.51-4.97-14.14c0.62,5.1,1.54,10.08,2.57,15.02
									c1.01,4.95,2.2,9.83,3.43,14.7c1.29,4.85,2.61,9.68,4.11,14.45C1584.66,776.5,1586.25,781.24,1588.15,785.86z"/>
							</g>
						</g>
					</g>
				</g>
			</g>
			<g id="XMLID_3343_">
				<g id="XMLID_3344_">
					<g id="XMLID_3345_">
						<g id="XMLID_3346_">
							<g id="XMLID_3347_">
								<path id="XMLID_3348_" d="M1580.48,794.05c-0.62-5.09-1.54-10.07-2.57-15.02c-1.01-4.95-2.2-9.83-3.43-14.7
									c-1.28-4.85-2.61-9.68-4.11-14.45c-1.48-4.78-3.07-9.51-4.97-14.14c0.61,5.1,1.54,10.08,2.57,15.02
									c1.01,4.95,2.2,9.83,3.43,14.7c1.29,4.85,2.61,9.68,4.11,14.45C1577,784.69,1578.59,789.43,1580.48,794.05z"/>
							</g>
						</g>
					</g>
				</g>
			</g>
			<g id="XMLID_3337_">
				<g id="XMLID_3338_">
					<g id="XMLID_3339_">
						<g id="XMLID_3340_">
							<g id="XMLID_3341_">
								<path id="XMLID_3342_" d="M1572.82,802.24c-0.62-5.09-1.54-10.07-2.57-15.02c-1.01-4.95-2.2-9.83-3.43-14.7
									c-1.28-4.85-2.6-9.68-4.11-14.45c-1.48-4.78-3.07-9.51-4.97-14.13c0.62,5.1,1.54,10.08,2.57,15.02
									c1.01,4.95,2.2,9.83,3.43,14.7c1.29,4.85,2.61,9.68,4.11,14.45C1569.34,792.88,1570.93,797.61,1572.82,802.24z"/>
							</g>
						</g>
					</g>
				</g>
			</g>
			<g id="XMLID_3331_">
				<g id="XMLID_3332_">
					<g id="XMLID_3333_">
						<g id="XMLID_3334_">
							<g id="XMLID_3335_">
								<path id="XMLID_3336_" d="M1565.16,810.42c-0.62-5.09-1.54-10.07-2.57-15.02c-1.01-4.95-2.2-9.83-3.43-14.7
									c-1.28-4.85-2.61-9.68-4.11-14.45c-1.48-4.77-3.08-9.51-4.97-14.13c0.62,5.1,1.54,10.08,2.57,15.02
									c1.01,4.95,2.2,9.83,3.43,14.7c1.29,4.85,2.61,9.68,4.11,14.45C1561.68,801.06,1563.26,805.8,1565.16,810.42z"/>
							</g>
						</g>
					</g>
				</g>
			</g>
			<g id="XMLID_3324_">
				<g id="XMLID_3325_">
					<g id="XMLID_3327_">
						<g id="XMLID_3328_">
							<g id="XMLID_3329_">
								<path id="XMLID_3330_" d="M1557.5,818.61c-0.62-5.09-1.54-10.08-2.57-15.02c-1.01-4.95-2.2-9.83-3.43-14.7
									c-1.28-4.85-2.61-9.68-4.11-14.45c-1.48-4.78-3.07-9.51-4.97-14.14c0.62,5.1,1.54,10.08,2.57,15.02
									c1.01,4.95,2.2,9.83,3.43,14.7c1.29,4.85,2.61,9.68,4.11,14.45C1554.01,809.25,1555.6,813.98,1557.5,818.61z"/>
							</g>
						</g>
					</g>
				</g>
			</g>
			<g id="XMLID_3318_">
				<g id="XMLID_3319_">
					<g id="XMLID_3320_">
						<g id="XMLID_3321_">
							<g id="XMLID_3322_">
								<path id="XMLID_3323_" d="M1549.83,826.79c-0.62-5.09-1.54-10.07-2.57-15.02c-1.01-4.95-2.2-9.83-3.43-14.7
									c-1.28-4.85-2.6-9.68-4.11-14.45c-1.48-4.78-3.07-9.51-4.97-14.13c0.62,5.09,1.54,10.08,2.57,15.02
									c1.01,4.95,2.2,9.83,3.43,14.7c1.29,4.85,2.61,9.68,4.11,14.45C1546.35,817.43,1547.94,822.17,1549.83,826.79z"/>
							</g>
						</g>
					</g>
				</g>
			</g>
			<g id="XMLID_3312_">
				<g id="XMLID_3313_">
					<g id="XMLID_3314_">
						<g id="XMLID_3315_">
							<g id="XMLID_3316_">
								<path id="XMLID_3317_" d="M1542.17,834.98c-0.62-5.09-1.54-10.07-2.57-15.02c-1.01-4.95-2.2-9.83-3.43-14.7
									c-1.28-4.85-2.61-9.68-4.11-14.45c-1.48-4.77-3.08-9.51-4.97-14.13c0.62,5.09,1.54,10.08,2.57,15.02
									c1.01,4.95,2.2,9.83,3.43,14.7c1.29,4.85,2.61,9.68,4.11,14.45C1538.69,825.62,1540.28,830.35,1542.17,834.98z"/>
							</g>
						</g>
					</g>
				</g>
			</g>
			<g id="XMLID_3306_">
				<g id="XMLID_3307_">
					<g id="XMLID_3308_">
						<g id="XMLID_3309_">
							<g id="XMLID_3310_">
								<path id="XMLID_3311_" d="M1534.51,843.16c-0.62-5.09-1.54-10.07-2.57-15.02c-1.01-4.95-2.2-9.83-3.43-14.7
									c-1.28-4.85-2.6-9.68-4.11-14.45c-1.48-4.78-3.07-9.51-4.97-14.13c0.62,5.09,1.54,10.07,2.57,15.02
									c1.01,4.95,2.2,9.83,3.43,14.7c1.29,4.85,2.61,9.68,4.11,14.45C1531.02,833.8,1532.62,838.54,1534.51,843.16z"/>
							</g>
						</g>
					</g>
				</g>
			</g>
			<g id="XMLID_3300_">
				<g id="XMLID_3301_">
					<g id="XMLID_3302_">
						<g id="XMLID_3303_">
							<g id="XMLID_3304_">
								<path id="XMLID_3305_" d="M1526.85,851.35c-0.62-5.09-1.54-10.08-2.57-15.02c-1.01-4.95-2.2-9.83-3.43-14.7
									c-1.28-4.85-2.61-9.68-4.11-14.45c-1.48-4.78-3.07-9.51-4.97-14.14c0.62,5.1,1.54,10.08,2.57,15.02
									c1.01,4.95,2.2,9.83,3.43,14.7c1.29,4.85,2.61,9.68,4.11,14.45C1523.36,841.99,1524.95,846.73,1526.85,851.35z"/>
							</g>
						</g>
					</g>
				</g>
			</g>
			<g id="XMLID_3294_">
				<g id="XMLID_3295_">
					<g id="XMLID_3296_">
						<g id="XMLID_3297_">
							<g id="XMLID_3298_">
								<path id="XMLID_3299_" d="M1519.18,859.54c-0.62-5.09-1.54-10.07-2.57-15.02c-1.01-4.95-2.2-9.83-3.43-14.7
									c-1.28-4.85-2.61-9.68-4.11-14.45c-1.48-4.78-3.07-9.51-4.97-14.13c0.62,5.09,1.54,10.08,2.57,15.02
									c1.01,4.95,2.2,9.83,3.43,14.7c1.29,4.85,2.61,9.68,4.11,14.45C1515.7,850.18,1517.29,854.91,1519.18,859.54z"/>
							</g>
						</g>
					</g>
				</g>
			</g>
			<g id="XMLID_3288_">
				<g id="XMLID_3289_">
					<g id="XMLID_3290_">
						<g id="XMLID_3291_">
							<g id="XMLID_3292_">
								<path id="XMLID_3293_" d="M1511.52,867.72c-0.62-5.09-1.54-10.07-2.57-15.02c-1.01-4.95-2.2-9.83-3.43-14.7
									c-1.28-4.85-2.6-9.68-4.11-14.45c-1.48-4.77-3.07-9.51-4.97-14.13c0.62,5.09,1.54,10.08,2.57,15.02
									c1.01,4.95,2.2,9.83,3.43,14.7c1.29,4.85,2.61,9.68,4.11,14.45C1508.04,858.36,1509.63,863.1,1511.52,867.72z"/>
							</g>
						</g>
					</g>
				</g>
			</g>
			<g id="XMLID_3282_">
				<g id="XMLID_3283_">
					<g id="XMLID_3284_">
						<g id="XMLID_3285_">
							<g id="XMLID_3286_">
								<path id="XMLID_3287_" d="M1503.86,875.91c-0.62-5.09-1.54-10.08-2.57-15.02c-1.01-4.95-2.2-9.83-3.43-14.7
									c-1.28-4.85-2.61-9.68-4.11-14.45c-1.48-4.78-3.07-9.51-4.97-14.13c0.62,5.1,1.54,10.08,2.57,15.02
									c1.01,4.95,2.2,9.83,3.43,14.7c1.29,4.85,2.61,9.68,4.11,14.45C1500.37,866.55,1501.97,871.28,1503.86,875.91z"/>
							</g>
						</g>
					</g>
				</g>
			</g>
			<g id="XMLID_3276_">
				<g id="XMLID_3277_">
					<g id="XMLID_3278_">
						<g id="XMLID_3279_">
							<g id="XMLID_3280_">
								<path id="XMLID_3281_" d="M1496.2,884.09c-0.62-5.09-1.54-10.07-2.57-15.02c-1.01-4.95-2.2-9.83-3.43-14.7
									c-1.28-4.85-2.61-9.68-4.11-14.45c-1.48-4.78-3.07-9.51-4.97-14.14c0.61,5.09,1.54,10.08,2.57,15.02
									c1.01,4.95,2.2,9.83,3.43,14.7c1.29,4.85,2.61,9.68,4.11,14.45C1492.71,874.73,1494.3,879.47,1496.2,884.09z"/>
							</g>
						</g>
					</g>
				</g>
			</g>
			<g id="XMLID_3270_">
				<g id="XMLID_3271_">
					<g id="XMLID_3272_">
						<g id="XMLID_3273_">
							<g id="XMLID_3274_">
								<path id="XMLID_3275_" d="M1488.53,892.28c-0.62-5.09-1.54-10.07-2.57-15.02c-1.01-4.95-2.2-9.83-3.43-14.7
									c-1.28-4.85-2.6-9.68-4.11-14.45c-1.48-4.77-3.07-9.51-4.97-14.13c0.62,5.09,1.54,10.08,2.57,15.02
									c1.01,4.95,2.2,9.83,3.43,14.7c1.29,4.85,2.61,9.68,4.11,14.45C1485.05,882.92,1486.64,887.65,1488.53,892.28z"/>
							</g>
						</g>
					</g>
				</g>
			</g>
			<g id="XMLID_3264_">
				<g id="XMLID_3265_">
					<g id="XMLID_3266_">
						<g id="XMLID_3267_">
							<g id="XMLID_3268_">
								<path id="XMLID_3269_" d="M1480.87,900.46c-0.62-5.09-1.54-10.07-2.57-15.02c-1.01-4.95-2.2-9.83-3.43-14.7
									c-1.28-4.85-2.61-9.68-4.11-14.45c-1.48-4.78-3.07-9.51-4.97-14.13c0.62,5.09,1.54,10.08,2.57,15.02
									c1.01,4.95,2.2,9.83,3.43,14.7c1.29,4.85,2.61,9.68,4.11,14.45C1477.39,891.1,1478.98,895.84,1480.87,900.46z"/>
							</g>
						</g>
					</g>
				</g>
			</g>
			<g id="XMLID_3258_">
				<g id="XMLID_3259_">
					<g id="XMLID_3260_">
						<g id="XMLID_3261_">
							<g id="XMLID_3262_">
								<path id="XMLID_3263_" d="M1473.21,908.65c-0.62-5.09-1.54-10.07-2.57-15.02c-1.01-4.95-2.2-9.83-3.43-14.7
									c-1.28-4.85-2.61-9.68-4.11-14.45c-1.48-4.78-3.07-9.51-4.97-14.13c0.61,5.1,1.54,10.08,2.57,15.02
									c1.01,4.95,2.2,9.83,3.43,14.7c1.29,4.85,2.61,9.68,4.11,14.45C1469.72,899.29,1471.31,904.03,1473.21,908.65z"/>
							</g>
						</g>
					</g>
				</g>
			</g>
			<g id="XMLID_3252_">
				<g id="XMLID_3253_">
					<g id="XMLID_3254_">
						<g id="XMLID_3255_">
							<g id="XMLID_3256_">
								<path id="XMLID_3257_" d="M1465.55,916.83c-0.62-5.09-1.54-10.07-2.57-15.02c-1.01-4.95-2.2-9.83-3.43-14.7
									c-1.28-4.85-2.6-9.68-4.11-14.45c-1.48-4.78-3.07-9.51-4.97-14.13c0.62,5.09,1.54,10.08,2.57,15.02
									c1.01,4.95,2.2,9.83,3.43,14.7c1.29,4.85,2.61,9.68,4.11,14.45C1462.06,907.47,1463.65,912.21,1465.55,916.83z"/>
							</g>
						</g>
					</g>
				</g>
			</g>
			<g id="XMLID_3246_">
				<g id="XMLID_3247_">
					<g id="XMLID_3248_">
						<g id="XMLID_3249_">
							<g id="XMLID_3250_">
								<path id="XMLID_3251_" d="M1457.88,925.02c-0.62-5.09-1.54-10.07-2.57-15.02c-1.01-4.95-2.2-9.83-3.43-14.7
									c-1.28-4.85-2.61-9.68-4.11-14.45c-1.48-4.77-3.08-9.51-4.97-14.13c0.61,5.09,1.54,10.08,2.57,15.02
									c1.01,4.95,2.2,9.83,3.43,14.7c1.29,4.85,2.61,9.68,4.11,14.45C1454.4,915.66,1455.99,920.4,1457.88,925.02z"/>
							</g>
						</g>
					</g>
				</g>
			</g>
			<g id="XMLID_3240_">
				<g id="XMLID_3241_">
					<g id="XMLID_3242_">
						<g id="XMLID_3243_">
							<g id="XMLID_3244_">
								<path id="XMLID_3245_" d="M1450.22,933.21c-0.62-5.09-1.54-10.08-2.57-15.02c-1.01-4.95-2.2-9.83-3.43-14.7
									c-1.28-4.85-2.61-9.68-4.11-14.45c-1.48-4.77-3.07-9.51-4.97-14.13c0.61,5.09,1.54,10.08,2.57,15.02
									c1.01,4.95,2.2,9.83,3.43,14.7c1.29,4.85,2.61,9.68,4.11,14.45C1446.74,923.85,1448.33,928.58,1450.22,933.21z"/>
							</g>
						</g>
					</g>
				</g>
			</g>
			<g id="XMLID_3234_">
				<g id="XMLID_3235_">
					<g id="XMLID_3236_">
						<g id="XMLID_3237_">
							<g id="XMLID_3238_">
								<path id="XMLID_3239_" d="M1442.56,941.39c-0.62-5.09-1.54-10.08-2.57-15.02c-1.01-4.95-2.2-9.83-3.43-14.7
									c-1.28-4.85-2.61-9.68-4.11-14.45c-1.48-4.78-3.07-9.51-4.97-14.13c0.62,5.09,1.54,10.08,2.57,15.02
									c1.01,4.95,2.2,9.83,3.43,14.7c1.29,4.85,2.61,9.68,4.11,14.45C1439.07,932.03,1440.67,936.77,1442.56,941.39z"/>
							</g>
						</g>
					</g>
				</g>
			</g>
			<g id="XMLID_3228_">
				<g id="XMLID_3229_">
					<g id="XMLID_3230_">
						<g id="XMLID_3231_">
							<g id="XMLID_3232_">
								<path id="XMLID_3233_" d="M1434.9,949.58c-0.62-5.09-1.54-10.07-2.57-15.02c-1.01-4.95-2.2-9.83-3.43-14.7
									c-1.28-4.85-2.61-9.68-4.11-14.45c-1.48-4.78-3.08-9.51-4.97-14.13c0.61,5.09,1.53,10.08,2.57,15.02
									c1.01,4.95,2.2,9.83,3.43,14.7c1.29,4.85,2.61,9.68,4.11,14.45C1431.41,940.22,1433,944.95,1434.9,949.58z"/>
							</g>
						</g>
					</g>
				</g>
			</g>
			<g id="XMLID_3222_">
				<g id="XMLID_3223_">
					<g id="XMLID_3224_">
						<g id="XMLID_3225_">
							<g id="XMLID_3226_">
								<path id="XMLID_3227_" d="M1427.23,957.76c-0.62-5.09-1.54-10.07-2.57-15.02c-1.01-4.95-2.2-9.83-3.43-14.7
									c-1.28-4.85-2.61-9.68-4.11-14.45c-1.48-4.78-3.07-9.51-4.97-14.13c0.61,5.09,1.54,10.08,2.57,15.02
									c1.01,4.95,2.2,9.83,3.43,14.7c1.29,4.85,2.61,9.68,4.11,14.45C1423.75,948.4,1425.34,953.14,1427.23,957.76z"/>
							</g>
						</g>
					</g>
				</g>
			</g>
			<g id="XMLID_3216_">
				<g id="XMLID_3217_">
					<g id="XMLID_3218_">
						<g id="XMLID_3219_">
							<g id="XMLID_3220_">
								<path id="XMLID_3221_" d="M1419.57,965.95c-0.62-5.09-1.54-10.07-2.57-15.02c-1.01-4.95-2.2-9.83-3.43-14.7
									c-1.28-4.85-2.61-9.68-4.11-14.45c-1.48-4.78-3.07-9.51-4.97-14.13c0.62,5.09,1.54,10.08,2.57,15.02
									c1.01,4.95,2.2,9.83,3.43,14.7c1.29,4.85,2.61,9.68,4.11,14.45C1416.09,956.59,1417.68,961.32,1419.57,965.95z"/>
							</g>
						</g>
					</g>
				</g>
			</g>
			<g id="XMLID_3210_">
				<g id="XMLID_3211_">
					<g id="XMLID_3212_">
						<g id="XMLID_00000075878445048859597280000002303109811539419798_">
							<g id="XMLID_00000136404668243822638160000001261099430878533780_">
								<path id="XMLID_3215_" d="M1411.91,974.13c-0.62-5.09-1.54-10.08-2.57-15.02c-1.01-4.95-2.2-9.83-3.43-14.7
									c-1.28-4.85-2.61-9.68-4.1-14.45c-1.48-4.78-3.08-9.51-4.97-14.13c0.62,5.09,1.54,10.08,2.57,15.02
									c1.01,4.95,2.2,9.83,3.43,14.7c1.29,4.85,2.61,9.68,4.11,14.45C1408.42,964.77,1410.01,969.51,1411.91,974.13z"/>
							</g>
						</g>
					</g>
				</g>
			</g>
			<g id="XMLID_3204_">
				<g id="XMLID_3205_">
					<g id="XMLID_3206_">
						<g id="XMLID_3207_">
							<g id="XMLID_3208_">
								<path id="XMLID_3209_" d="M1404.25,982.32c-0.62-5.09-1.54-10.07-2.57-15.02c-1.01-4.95-2.2-9.83-3.43-14.7
									c-1.28-4.85-2.61-9.68-4.11-14.45c-1.48-4.77-3.08-9.51-4.97-14.13c0.62,5.09,1.54,10.08,2.57,15.02
									c1.01,4.95,2.2,9.83,3.43,14.7c1.29,4.85,2.61,9.68,4.11,14.45C1400.76,972.96,1402.35,977.7,1404.25,982.32z"/>
							</g>
						</g>
					</g>
				</g>
			</g>
			<g id="XMLID_3198_">
				<g id="XMLID_3199_">
					<g id="XMLID_3200_">
						<g id="XMLID_3201_">
							<g id="XMLID_3202_">
								<path id="XMLID_3203_" d="M1396.58,990.51c-0.62-5.09-1.54-10.07-2.57-15.02c-1.01-4.95-2.2-9.83-3.43-14.7
									c-1.28-4.85-2.61-9.68-4.11-14.45c-1.48-4.78-3.07-9.51-4.97-14.13c0.62,5.09,1.54,10.08,2.57,15.02
									c1.01,4.95,2.2,9.83,3.43,14.7c1.29,4.85,2.61,9.68,4.11,14.45C1393.1,981.15,1394.69,985.88,1396.58,990.51z"/>
							</g>
						</g>
					</g>
				</g>
			</g>
			<g id="XMLID_3192_">
				<g id="XMLID_3193_">
					<g id="XMLID_3194_">
						<g id="XMLID_3195_">
							<g id="XMLID_3196_">
								<path id="XMLID_3197_" d="M1388.92,998.69c-0.62-5.09-1.54-10.08-2.57-15.02c-1.01-4.95-2.2-9.83-3.43-14.7
									c-1.28-4.85-2.61-9.68-4.11-14.45c-1.48-4.78-3.07-9.51-4.97-14.13c0.61,5.1,1.54,10.08,2.57,15.02
									c1.01,4.95,2.2,9.83,3.43,14.7c1.29,4.85,2.61,9.68,4.11,14.45C1385.44,989.33,1387.03,994.07,1388.92,998.69z"/>
							</g>
						</g>
					</g>
				</g>
			</g>
			<g id="XMLID_3186_">
				<g id="XMLID_3187_">
					<g id="XMLID_3188_">
						<g id="XMLID_3189_">
							<g id="XMLID_3190_">
								<path id="XMLID_3191_" d="M1381.26,1006.88c-0.62-5.09-1.54-10.07-2.57-15.02c-1.01-4.95-2.2-9.83-3.43-14.7
									c-1.28-4.85-2.61-9.68-4.11-14.45c-1.48-4.78-3.08-9.51-4.97-14.13c0.62,5.09,1.54,10.08,2.57,15.02
									c1.01,4.95,2.2,9.83,3.43,14.7c1.29,4.85,2.61,9.68,4.11,14.45C1377.77,997.52,1379.36,1002.25,1381.26,1006.88z"/>
							</g>
						</g>
					</g>
				</g>
			</g>
			<g id="XMLID_3180_">
				<g id="XMLID_3181_">
					<g id="XMLID_3182_">
						<g id="XMLID_3183_">
							<g id="XMLID_3184_">
								<path id="XMLID_3185_" d="M1373.6,1015.06c-0.62-5.09-1.54-10.08-2.57-15.02c-1.01-4.95-2.2-9.83-3.43-14.7
									c-1.28-4.85-2.61-9.68-4.11-14.45c-1.48-4.78-3.08-9.51-4.97-14.13c0.62,5.09,1.54,10.08,2.57,15.02
									c1.01,4.95,2.2,9.83,3.43,14.7c1.28,4.85,2.61,9.68,4.11,14.45C1370.11,1005.7,1371.7,1010.44,1373.6,1015.06z"/>
							</g>
						</g>
					</g>
				</g>
			</g>
			<g id="XMLID_3174_">
				<g id="XMLID_3175_">
					<g id="XMLID_3176_">
						<g id="XMLID_3177_">
							<g id="XMLID_3178_">
								<path id="XMLID_3179_" d="M1365.93,1023.25c-0.62-5.09-1.54-10.08-2.57-15.02c-1.01-4.95-2.2-9.83-3.43-14.7
									c-1.28-4.85-2.61-9.68-4.11-14.45c-1.48-4.78-3.07-9.51-4.97-14.13c0.61,5.09,1.54,10.08,2.57,15.02
									c1.01,4.95,2.2,9.83,3.43,14.7c1.29,4.85,2.61,9.68,4.11,14.45C1362.45,1013.89,1364.04,1018.62,1365.93,1023.25z"/>
							</g>
						</g>
					</g>
				</g>
			</g>
			<g id="XMLID_3168_">
				<g id="XMLID_3169_">
					<g id="XMLID_3170_">
						<g id="XMLID_3171_">
							<g id="XMLID_3172_">
								<path id="XMLID_3173_" d="M1358.27,1031.43c-0.62-5.09-1.54-10.07-2.57-15.02c-1.01-4.95-2.2-9.83-3.43-14.7
									c-1.28-4.85-2.61-9.68-4.11-14.45c-1.48-4.78-3.07-9.51-4.97-14.13c0.62,5.09,1.54,10.08,2.57,15.02
									c1.01,4.95,2.2,9.83,3.43,14.7c1.29,4.85,2.61,9.68,4.11,14.45C1354.79,1022.07,1356.38,1026.81,1358.27,1031.43z"/>
							</g>
						</g>
					</g>
				</g>
			</g>
			<g id="XMLID_3162_">
				<g id="XMLID_3163_">
					<g id="XMLID_3164_">
						<g id="XMLID_3165_">
							<g id="XMLID_3166_">
								<path id="XMLID_3167_" d="M1350.61,1039.62c-0.62-5.09-1.54-10.08-2.58-15.02c-1.01-4.95-2.2-9.83-3.43-14.7
									c-1.28-4.85-2.61-9.68-4.11-14.45c-1.48-4.78-3.08-9.51-4.97-14.13c0.61,5.09,1.54,10.08,2.57,15.02
									c1.01,4.95,2.2,9.83,3.43,14.7c1.29,4.85,2.61,9.68,4.11,14.45C1347.13,1030.26,1348.71,1035,1350.61,1039.62z"/>
							</g>
						</g>
					</g>
				</g>
			</g>
			<g id="XMLID_3156_">
				<g id="XMLID_3157_">
					<g id="XMLID_3158_">
						<g id="XMLID_3159_">
							<g id="XMLID_3160_">
								<path id="XMLID_3161_" d="M1342.95,1047.81c-0.62-5.09-1.54-10.07-2.57-15.02c-1.01-4.95-2.2-9.83-3.43-14.7
									c-1.28-4.85-2.61-9.68-4.11-14.45c-1.48-4.77-3.07-9.51-4.97-14.13c0.61,5.09,1.54,10.08,2.57,15.02
									c1.01,4.95,2.2,9.83,3.43,14.7c1.29,4.85,2.61,9.68,4.11,14.45C1339.46,1038.45,1341.05,1043.18,1342.95,1047.81z"/>
							</g>
						</g>
					</g>
				</g>
			</g>
			<g id="XMLID_3150_">
				<g id="XMLID_3151_">
					<g id="XMLID_3152_">
						<g id="XMLID_3153_">
							<g id="XMLID_3154_">
								<path id="XMLID_3155_" d="M1335.28,1055.99c-0.62-5.09-1.54-10.08-2.57-15.02c-1.01-4.95-2.2-9.83-3.43-14.7
									c-1.28-4.85-2.6-9.68-4.11-14.45c-1.48-4.78-3.07-9.51-4.97-14.13c0.61,5.09,1.54,10.08,2.57,15.02
									c1.01,4.95,2.2,9.83,3.43,14.7c1.29,4.85,2.61,9.68,4.11,14.45C1331.8,1046.63,1333.39,1051.37,1335.28,1055.99z"/>
							</g>
						</g>
					</g>
				</g>
			</g>
			<g id="XMLID_3144_">
				<g id="XMLID_3145_">
					<g id="XMLID_3146_">
						<g id="XMLID_3147_">
							<g id="XMLID_3148_">
								<path id="XMLID_3149_" d="M1327.62,1064.18c-0.62-5.09-1.54-10.08-2.57-15.02c-1.01-4.95-2.2-9.83-3.43-14.7
									c-1.28-4.85-2.61-9.68-4.11-14.45c-1.48-4.78-3.07-9.51-4.97-14.13c0.62,5.09,1.54,10.08,2.57,15.02
									c1.01,4.95,2.2,9.83,3.43,14.7c1.29,4.85,2.61,9.68,4.11,14.45C1324.14,1054.82,1325.73,1059.55,1327.62,1064.18z"/>
							</g>
						</g>
					</g>
				</g>
			</g>
			<g id="XMLID_3138_">
				<g id="XMLID_3139_">
					<g id="XMLID_3140_">
						<g id="XMLID_3141_">
							<g id="XMLID_3142_">
								<path id="XMLID_3143_" d="M1319.96,1072.36c-0.62-5.09-1.54-10.08-2.57-15.02c-1.01-4.95-2.2-9.83-3.43-14.7
									c-1.28-4.85-2.61-9.68-4.11-14.45c-1.48-4.77-3.07-9.51-4.97-14.13c0.62,5.09,1.54,10.08,2.57,15.02
									c1.01,4.95,2.2,9.83,3.43,14.7c1.29,4.85,2.61,9.68,4.11,14.45C1316.47,1063,1318.07,1067.74,1319.96,1072.36z"/>
							</g>
						</g>
					</g>
				</g>
			</g>
			<g id="XMLID_3132_">
				<g id="XMLID_3133_">
					<g id="XMLID_3134_">
						<g id="XMLID_3135_">
							<g id="XMLID_3136_">
								<path id="XMLID_3137_" d="M1312.3,1080.55c-0.62-5.09-1.54-10.08-2.57-15.02c-1.01-4.95-2.2-9.83-3.43-14.7
									c-1.28-4.85-2.6-9.68-4.11-14.45c-1.48-4.78-3.07-9.51-4.97-14.14c0.61,5.1,1.54,10.08,2.57,15.02
									c1.01,4.95,2.21,9.83,3.43,14.7c1.29,4.85,2.61,9.68,4.11,14.45C1308.81,1071.19,1310.4,1075.92,1312.3,1080.55z"/>
							</g>
						</g>
					</g>
				</g>
			</g>
			<g id="XMLID_3126_">
				<g id="XMLID_3127_">
					<g id="XMLID_3128_">
						<g id="XMLID_3129_">
							<g id="XMLID_3130_">
								<path id="XMLID_3131_" d="M1304.63,1088.73c-0.62-5.09-1.54-10.07-2.57-15.01c-1.01-4.95-2.2-9.83-3.43-14.7
									c-1.28-4.85-2.6-9.68-4.11-14.45c-1.48-4.78-3.08-9.51-4.97-14.13c0.61,5.1,1.54,10.08,2.57,15.02
									c1.01,4.95,2.2,9.83,3.43,14.7c1.29,4.85,2.61,9.68,4.11,14.45C1301.15,1079.37,1302.74,1084.11,1304.63,1088.73z"/>
							</g>
						</g>
					</g>
				</g>
			</g>
			<g id="XMLID_3120_">
				<g id="XMLID_3121_">
					<g id="XMLID_3122_">
						<g id="XMLID_3123_">
							<g id="XMLID_3124_">
								<path id="XMLID_3125_" d="M1296.97,1096.92c-0.62-5.09-1.54-10.08-2.57-15.02c-1.01-4.95-2.2-9.83-3.43-14.7
									c-1.28-4.85-2.6-9.68-4.11-14.45c-1.48-4.78-3.07-9.51-4.97-14.14c0.62,5.1,1.54,10.08,2.57,15.02
									c1.01,4.95,2.2,9.83,3.43,14.7c1.29,4.85,2.61,9.68,4.11,14.45C1293.49,1087.56,1295.08,1092.3,1296.97,1096.92z"/>
							</g>
						</g>
					</g>
				</g>
			</g>
			<g id="XMLID_3114_">
				<g id="XMLID_3115_">
					<g id="XMLID_3116_">
						<g id="XMLID_3117_">
							<g id="XMLID_3118_">
								<path id="XMLID_3119_" d="M1289.31,1105.1c-0.62-5.09-1.54-10.07-2.57-15.02c-1.01-4.95-2.2-9.83-3.43-14.7
									c-1.28-4.85-2.61-9.68-4.11-14.45c-1.48-4.78-3.07-9.51-4.97-14.13c0.62,5.09,1.54,10.08,2.57,15.02
									c1.01,4.95,2.2,9.83,3.43,14.7c1.29,4.85,2.61,9.68,4.11,14.45C1285.82,1095.74,1287.42,1100.48,1289.31,1105.1z"/>
							</g>
						</g>
					</g>
				</g>
			</g>
			<g id="XMLID_3108_">
				<g id="XMLID_3109_">
					<g id="XMLID_3110_">
						<g id="XMLID_3111_">
							<g id="XMLID_3112_">
								<path id="XMLID_3113_" d="M1281.65,1113.29c-0.62-5.09-1.54-10.08-2.57-15.02c-1.01-4.95-2.2-9.83-3.43-14.7
									c-1.28-4.85-2.61-9.68-4.11-14.45c-1.48-4.78-3.07-9.51-4.97-14.13c0.61,5.1,1.54,10.08,2.57,15.02
									c1.01,4.95,2.2,9.83,3.43,14.7c1.29,4.85,2.61,9.68,4.11,14.45C1278.16,1103.93,1279.75,1108.67,1281.65,1113.29z"/>
							</g>
						</g>
					</g>
				</g>
			</g>
			<g id="XMLID_3102_">
				<g id="XMLID_3103_">
					<g id="XMLID_3104_">
						<g id="XMLID_3105_">
							<g id="XMLID_3106_">
								<path id="XMLID_3107_" d="M1273.98,1121.47c-0.62-5.09-1.55-10.07-2.57-15.02c-1.01-4.95-2.2-9.83-3.43-14.7
									c-1.28-4.85-2.6-9.68-4.11-14.45c-1.48-4.78-3.07-9.51-4.97-14.14c0.62,5.1,1.54,10.08,2.57,15.02
									c1.01,4.95,2.2,9.83,3.43,14.7c1.29,4.85,2.61,9.68,4.11,14.45C1270.5,1112.12,1272.09,1116.85,1273.98,1121.47z"/>
							</g>
						</g>
					</g>
				</g>
			</g>
			<g id="XMLID_3096_">
				<g id="XMLID_3097_">
					<g id="XMLID_3098_">
						<g id="XMLID_3099_">
							<g id="XMLID_3100_">
								<path id="XMLID_3101_" d="M1266.32,1129.66c-0.62-5.09-1.54-10.07-2.57-15.02c-1.01-4.95-2.2-9.83-3.43-14.7
									c-1.28-4.85-2.61-9.68-4.11-14.45c-1.48-4.78-3.07-9.51-4.97-14.13c0.62,5.09,1.54,10.08,2.57,15.02
									c1.01,4.95,2.2,9.83,3.43,14.7c1.29,4.85,2.61,9.68,4.11,14.45C1262.84,1120.3,1264.43,1125.04,1266.32,1129.66z"/>
							</g>
						</g>
					</g>
				</g>
			</g>
			<g id="XMLID_3090_">
				<g id="XMLID_3091_">
					<g id="XMLID_3092_">
						<g id="XMLID_3093_">
							<g id="XMLID_3094_">
								<path id="XMLID_3095_" d="M1258.66,1137.85c-0.62-5.09-1.54-10.08-2.57-15.02c-1.01-4.95-2.2-9.83-3.43-14.7
									c-1.28-4.85-2.61-9.68-4.11-14.45c-1.48-4.78-3.07-9.51-4.97-14.13c0.61,5.09,1.54,10.08,2.57,15.02
									c1.01,4.95,2.2,9.83,3.43,14.7c1.29,4.85,2.61,9.68,4.11,14.45C1255.17,1128.49,1256.76,1133.22,1258.66,1137.85z"/>
							</g>
						</g>
					</g>
				</g>
			</g>
			<g id="XMLID_3084_">
				<g id="XMLID_3085_">
					<g id="XMLID_3086_">
						<g id="XMLID_3087_">
							<g id="XMLID_3088_">
								<path id="XMLID_3089_" d="M1251,1146.03c-0.62-5.09-1.54-10.08-2.57-15.02c-1.01-4.95-2.2-9.83-3.43-14.7
									c-1.28-4.85-2.6-9.68-4.11-14.45c-1.48-4.78-3.07-9.51-4.97-14.14c0.62,5.1,1.54,10.08,2.57,15.02
									c1.01,4.95,2.2,9.83,3.43,14.7c1.29,4.85,2.61,9.68,4.11,14.45C1247.51,1136.67,1249.1,1141.41,1251,1146.03z"/>
							</g>
						</g>
					</g>
				</g>
			</g>
			<g id="XMLID_3078_">
				<g id="XMLID_3079_">
					<g id="XMLID_3080_">
						<g id="XMLID_3081_">
							<g id="XMLID_3082_">
								<path id="XMLID_3083_" d="M1243.33,1154.22c-0.62-5.09-1.54-10.07-2.57-15.02c-1.01-4.95-2.2-9.83-3.43-14.7
									c-1.28-4.85-2.61-9.68-4.11-14.45c-1.48-4.78-3.08-9.51-4.97-14.13c0.62,5.09,1.54,10.08,2.57,15.02
									c1.01,4.95,2.2,9.83,3.43,14.7c1.29,4.85,2.61,9.68,4.11,14.45C1239.85,1144.86,1241.44,1149.59,1243.33,1154.22z"/>
							</g>
						</g>
					</g>
				</g>
			</g>
			<g id="XMLID_3072_">
				<g id="XMLID_3073_">
					<g id="XMLID_3074_">
						<g id="XMLID_3075_">
							<g id="XMLID_3076_">
								<path id="XMLID_3077_" d="M1235.67,1162.41c-0.62-5.09-1.54-10.08-2.57-15.02c-1.01-4.95-2.2-9.83-3.43-14.7
									c-1.28-4.85-2.61-9.68-4.11-14.45c-1.48-4.77-3.07-9.51-4.97-14.13c0.62,5.09,1.54,10.08,2.57,15.02
									c1.01,4.95,2.2,9.83,3.43,14.7c1.29,4.85,2.61,9.68,4.11,14.45C1232.19,1153.04,1233.78,1157.78,1235.67,1162.41z"/>
							</g>
						</g>
					</g>
				</g>
			</g>
			<g id="XMLID_3066_">
				<g id="XMLID_3067_">
					<g id="XMLID_3068_">
						<g id="XMLID_3069_">
							<g id="XMLID_3070_">
								<path id="XMLID_3071_" d="M1228.01,1170.59c-0.62-5.09-1.55-10.07-2.58-15.02c-1.01-4.95-2.2-9.83-3.43-14.7
									c-1.28-4.85-2.61-9.68-4.11-14.45c-1.48-4.77-3.07-9.51-4.97-14.13c0.62,5.09,1.54,10.08,2.57,15.02
									c1.01,4.95,2.2,9.83,3.43,14.7c1.29,4.85,2.61,9.68,4.11,14.45C1224.52,1161.23,1226.11,1165.97,1228.01,1170.59z"/>
							</g>
						</g>
					</g>
				</g>
			</g>
			<g id="XMLID_3060_">
				<g id="XMLID_3061_">
					<g id="XMLID_3062_">
						<g id="XMLID_3063_">
							<g id="XMLID_3064_">
								<path id="XMLID_3065_" d="M1220.35,1178.78c-0.62-5.09-1.54-10.08-2.57-15.02c-1.01-4.95-2.2-9.83-3.43-14.7
									c-1.28-4.85-2.61-9.68-4.11-14.45c-1.48-4.78-3.08-9.51-4.97-14.14c0.61,5.1,1.54,10.08,2.57,15.02
									c1.01,4.95,2.2,9.83,3.43,14.7c1.29,4.85,2.61,9.68,4.11,14.45C1216.86,1169.42,1218.45,1174.15,1220.35,1178.78z"/>
							</g>
						</g>
					</g>
				</g>
			</g>
			<g id="XMLID_3054_">
				<g id="XMLID_3055_">
					<g id="XMLID_3056_">
						<g id="XMLID_3057_">
							<g id="XMLID_3058_">
								<path id="XMLID_3059_" d="M1212.68,1186.96c-0.62-5.09-1.54-10.07-2.57-15.02c-1.01-4.95-2.2-9.83-3.43-14.7
									c-1.28-4.85-2.6-9.68-4.11-14.45c-1.48-4.77-3.08-9.51-4.97-14.13c0.61,5.1,1.54,10.08,2.57,15.02
									c1.01,4.95,2.2,9.83,3.43,14.7c1.29,4.85,2.61,9.68,4.11,14.45C1209.2,1177.6,1210.79,1182.34,1212.68,1186.96z"/>
							</g>
						</g>
					</g>
				</g>
			</g>
			<g id="XMLID_3048_">
				<g id="XMLID_3049_">
					<g id="XMLID_3050_">
						<g id="XMLID_3051_">
							<g id="XMLID_3052_">
								<path id="XMLID_3053_" d="M1205.02,1195.15c-0.62-5.09-1.54-10.07-2.57-15.02c-1.01-4.95-2.2-9.83-3.43-14.7
									c-1.28-4.85-2.61-9.68-4.11-14.45c-1.48-4.78-3.07-9.51-4.97-14.13c0.62,5.09,1.54,10.08,2.57,15.02
									c1.01,4.95,2.2,9.83,3.43,14.7c1.29,4.85,2.61,9.68,4.11,14.45C1201.54,1185.79,1203.13,1190.52,1205.02,1195.15z"/>
							</g>
						</g>
					</g>
				</g>
			</g>
			<g id="XMLID_3042_">
				<g id="XMLID_3043_">
					<g id="XMLID_3044_">
						<g id="XMLID_3045_">
							<g id="XMLID_3046_">
								<path id="XMLID_3047_" d="M1197.36,1203.33c-0.62-5.09-1.54-10.08-2.57-15.02c-1.01-4.95-2.2-9.83-3.43-14.7
									c-1.28-4.85-2.61-9.68-4.11-14.45c-1.48-4.78-3.07-9.51-4.97-14.14c0.62,5.1,1.54,10.08,2.57,15.02
									c1.01,4.95,2.2,9.83,3.43,14.7c1.29,4.85,2.61,9.68,4.11,14.45C1193.87,1193.97,1195.46,1198.71,1197.36,1203.33z"/>
							</g>
						</g>
					</g>
				</g>
			</g>
			<g id="XMLID_3036_">
				<g id="XMLID_3037_">
					<g id="XMLID_3038_">
						<g id="XMLID_3039_">
							<g id="XMLID_3040_">
								<path id="XMLID_3041_" d="M1189.7,1211.52c-0.62-5.09-1.55-10.07-2.57-15.02c-1.01-4.95-2.2-9.83-3.43-14.7
									c-1.28-4.85-2.6-9.68-4.11-14.45c-1.48-4.78-3.07-9.51-4.97-14.14c0.62,5.09,1.54,10.08,2.57,15.02
									c1.01,4.95,2.2,9.83,3.43,14.7c1.29,4.85,2.61,9.68,4.11,14.45C1186.21,1202.16,1187.8,1206.89,1189.7,1211.52z"/>
							</g>
						</g>
					</g>
				</g>
			</g>
			<g id="XMLID_3030_">
				<g id="XMLID_3031_">
					<g id="XMLID_3032_">
						<g id="XMLID_3033_">
							<g id="XMLID_3034_">
								<path id="XMLID_3035_" d="M1182.03,1219.7c-0.62-5.09-1.54-10.07-2.57-15.02c-1.01-4.95-2.2-9.83-3.43-14.7
									c-1.28-4.85-2.61-9.68-4.11-14.45c-1.48-4.78-3.07-9.51-4.97-14.13c0.62,5.09,1.54,10.08,2.57,15.02
									c1.01,4.95,2.2,9.83,3.43,14.7c1.29,4.85,2.61,9.68,4.11,14.45C1178.55,1210.34,1180.14,1215.08,1182.03,1219.7z"/>
							</g>
						</g>
					</g>
				</g>
			</g>
			<g id="XMLID_3024_">
				<g id="XMLID_3025_">
					<g id="XMLID_3026_">
						<g id="XMLID_3027_">
							<g id="XMLID_3028_">
								<path id="XMLID_3029_" d="M1170.97,1218.58c-0.33-4.3-0.97-8.5-1.71-12.66c-0.72-4.17-1.63-8.27-2.58-12.37
									c-1-4.07-2.04-8.14-3.26-12.13c-1.2-4.01-2.51-7.98-4.13-11.84c0.33,4.3,0.96,8.5,1.71,12.66
									c0.73,4.17,1.64,8.27,2.58,12.36c1,4.07,2.04,8.13,3.27,12.13C1168.05,1210.75,1169.35,1214.72,1170.97,1218.58z"/>
							</g>
						</g>
					</g>
				</g>
			</g>
			<g id="XMLID_3018_">
				<g id="XMLID_3019_">
					<g id="XMLID_3020_">
						<g id="XMLID_3021_">
							<g id="XMLID_3022_">
								<path id="XMLID_3023_" d="M1160.19,1215.81c-0.04-3.06-0.39-6.02-0.85-8.94c-0.46-2.92-1.02-5.8-1.71-8.64
									c-0.67-2.84-1.48-5.64-2.39-8.41c-0.91-2.76-1.93-5.49-3.26-8.11c0.04,3.06,0.39,6.02,0.84,8.94
									c0.46,2.92,1.02,5.8,1.71,8.64c0.68,2.84,1.49,5.64,2.4,8.41C1157.84,1210.46,1158.86,1213.19,1160.19,1215.81z"/>
							</g>
						</g>
					</g>
				</g>
			</g>
		</g>
		<g id="XMLID_3012_">
			<g id="XMLID_3013_">
				<g id="XMLID_3014_">
					<g id="XMLID_3015_">
						<path id="XMLID_3016_" d="M2001.37,463.16c-9.7,3.21-19.22,6.96-28.68,10.89c-4.75,1.91-9.43,4.02-14.15,6.04l-14.05,6.34
							l-13.96,6.63c-4.62,2.31-9.27,4.52-13.86,6.94c-9.2,4.72-18.35,9.63-27.32,15.07c9.7-3.21,19.22-6.95,28.68-10.88
							c4.75-1.91,9.43-4.03,14.15-6.04l14.05-6.35l13.95-6.64c4.62-2.31,9.27-4.53,13.86-6.94
							C1983.25,473.5,1992.4,468.6,2001.37,463.16z"/>
					</g>
				</g>
			</g>
		</g>
		<g id="XMLID_2949_">
			<g id="XMLID_3006_">
				<g id="XMLID_3007_">
					<g id="XMLID_3008_">
						<g id="XMLID_3009_">
							<g id="XMLID_3010_">
								<path id="XMLID_3011_" d="M1969.52,545.91c-5.69-3.83-11.52-7.32-17.38-10.68c-5.86-3.39-11.79-6.56-17.74-9.7
									c-5.97-3.07-11.96-6.1-18.02-8.92c-6.06-2.84-12.16-5.56-18.39-7.93c5.69,3.83,11.51,7.32,17.38,10.68
									c5.86,3.38,11.79,6.56,17.74,9.69c5.97,3.07,11.96,6.09,18.02,8.92C1957.19,540.82,1963.29,543.54,1969.52,545.91z"/>
							</g>
						</g>
					</g>
				</g>
			</g>
			<g id="XMLID_3001_">
				<g id="XMLID_3002_">
					<g id="XMLID_3003_">
						<g id="XMLID_3004_">
							<path id="XMLID_3005_" d="M1972.06,539.68c-5.27-3.58-10.67-6.82-16.12-9.93c-5.43-3.13-10.95-6.06-16.47-8.95
								c-5.55-2.82-11.11-5.6-16.75-8.18c-5.63-2.59-11.31-5.07-17.11-7.19c5.27,3.59,10.67,6.83,16.11,9.94
								c5.44,3.14,10.95,6.07,16.47,8.95c5.55,2.82,11.12,5.6,16.76,8.17C1960.58,535.08,1966.26,537.55,1972.06,539.68z"/>
						</g>
					</g>
				</g>
			</g>
			<g id="XMLID_2996_">
				<g id="XMLID_2997_">
					<g id="XMLID_2998_">
						<g id="XMLID_2999_">
							<path id="XMLID_3000_" d="M1974.6,533.44c-4.85-3.34-9.83-6.33-14.85-9.19c-5.01-2.89-10.1-5.57-15.2-8.21
								c-5.13-2.57-10.27-5.1-15.49-7.43c-5.21-2.35-10.46-4.57-15.84-6.44c4.85,3.34,9.83,6.33,14.85,9.2
								c5.01,2.89,10.1,5.57,15.21,8.2c5.13,2.57,10.27,5.1,15.49,7.42C1963.97,529.34,1969.23,531.57,1974.6,533.44z"/>
						</g>
					</g>
				</g>
			</g>
			<g id="XMLID_2991_">
				<g id="XMLID_2992_">
					<g id="XMLID_2993_">
						<g id="XMLID_2994_">
							<path id="XMLID_2995_" d="M1977.15,527.21c-4.44-3.09-8.99-5.83-13.59-8.45c-4.59-2.64-9.26-5.07-13.94-7.46
								c-4.7-2.33-9.42-4.61-14.22-6.69c-4.78-2.1-9.62-4.07-14.57-5.69c4.43,3.09,8.99,5.84,13.59,8.45
								c4.59,2.64,9.26,5.07,13.94,7.46c4.71,2.32,9.42,4.6,14.22,6.68C1967.36,523.61,1972.19,525.58,1977.15,527.21z"/>
						</g>
					</g>
				</g>
			</g>
			<g id="XMLID_2986_">
				<g id="XMLID_2987_">
					<g id="XMLID_2988_">
						<g id="XMLID_2989_">
							<path id="XMLID_2990_" d="M1979.69,520.97c-4.01-2.84-8.15-5.34-12.33-7.71c-4.17-2.39-8.42-4.58-12.68-6.72
								c-4.28-2.08-8.58-4.11-12.95-5.94c-4.36-1.85-8.77-3.57-13.29-4.94c4.01,2.85,8.15,5.34,12.33,7.71
								c4.17,2.39,8.42,4.58,12.68,6.72c4.28,2.07,8.58,4.11,12.95,5.93C1970.76,517.87,1975.16,519.6,1979.69,520.97z"/>
						</g>
					</g>
				</g>
			</g>
			<g id="XMLID_2981_">
				<g id="XMLID_2982_">
					<g id="XMLID_2983_">
						<g id="XMLID_2984_">
							<path id="XMLID_2985_" d="M1982.23,514.73c-3.6-2.6-7.32-4.84-11.07-6.97c-3.75-2.14-7.58-4.08-11.41-5.98
								c-3.86-1.83-7.73-3.62-11.68-5.19c-3.94-1.6-7.92-3.07-12.02-4.19c3.6,2.6,7.31,4.85,11.07,6.97
								c3.75,2.14,7.57,4.08,11.41,5.97c3.86,1.82,7.74,3.61,11.68,5.19C1974.15,512.14,1978.13,513.61,1982.23,514.73z"/>
						</g>
					</g>
				</g>
			</g>
			<g id="XMLID_2976_">
				<g id="XMLID_2977_">
					<g id="XMLID_2978_">
						<g id="XMLID_2979_">
							<path id="XMLID_2980_" d="M1984.77,508.5c-3.18-2.35-6.48-4.35-9.82-6.23c-3.33-1.9-6.73-3.59-10.15-5.24
								c-3.44-1.58-6.89-3.12-10.41-4.45c-3.51-1.35-7.07-2.57-10.74-3.44c3.18,2.36,6.48,4.36,9.82,6.23
								c3.33,1.9,6.73,3.59,10.15,5.23c3.44,1.58,6.89,3.11,10.41,4.44C1977.55,506.4,1981.1,507.63,1984.77,508.5z"/>
						</g>
					</g>
				</g>
			</g>
			<g id="XMLID_2971_">
				<g id="XMLID_2972_">
					<g id="XMLID_2973_">
						<g id="XMLID_2974_">
							<path id="XMLID_2975_" d="M1987.32,502.26c-2.77-2.11-5.65-3.86-8.57-5.49c-2.92-1.63-5.88-3.13-8.89-4.49
								c-3-1.37-6.05-2.6-9.14-3.7c-3.09-1.1-6.22-2.07-9.46-2.69c2.76,2.11,5.64,3.87,8.56,5.49c2.92,1.63,5.88,3.13,8.89,4.49
								c3,1.37,6.05,2.59,9.14,3.69C1980.95,500.67,1984.08,501.64,1987.32,502.26z"/>
						</g>
					</g>
				</g>
			</g>
			<g id="XMLID_2966_">
				<g id="XMLID_2967_">
					<g id="XMLID_2968_">
						<g id="XMLID_2969_">
							<path id="XMLID_2970_" d="M1989.86,496.03c-2.36-1.86-4.82-3.37-7.32-4.75c-2.5-1.38-5.04-2.64-7.62-3.75
								c-2.58-1.13-5.21-2.1-7.87-2.95c-2.66-0.85-5.36-1.57-8.17-1.94c2.35,1.87,4.81,3.38,7.32,4.76c2.5,1.38,5.04,2.64,7.62,3.74
								c2.58,1.12,5.2,2.09,7.87,2.94C1984.35,494.94,1987.05,495.66,1989.86,496.03z"/>
						</g>
					</g>
				</g>
			</g>
			<g id="XMLID_2961_">
				<g id="XMLID_2962_">
					<g id="XMLID_2963_">
						<g id="XMLID_2964_">
							<path id="XMLID_2965_" d="M1992.4,489.79c-1.95-1.62-3.99-2.88-6.08-4.02c-2.08-1.13-4.2-2.14-6.36-3.01
								c-2.15-0.88-4.36-1.6-6.59-2.2c-2.23-0.6-4.5-1.07-6.88-1.18c1.94,1.63,3.99,2.89,6.08,4.02c2.08,1.13,4.2,2.14,6.36,3
								c2.16,0.87,4.36,1.6,6.59,2.2C1987.76,489.21,1990.03,489.68,1992.4,489.79z"/>
						</g>
					</g>
				</g>
			</g>
			<g id="XMLID_2956_">
				<g id="XMLID_2957_">
					<g id="XMLID_2958_">
						<g id="XMLID_2959_">
							<path id="XMLID_2960_" d="M1994.95,483.56c-1.54-1.39-3.19-2.39-4.85-3.3c-1.67-0.89-3.37-1.63-5.11-2.26
								c-1.73-0.62-3.5-1.12-5.31-1.47c-1.81-0.33-3.64-0.56-5.57-0.41c1.54,1.39,3.18,2.39,4.84,3.31
								c1.67,0.89,3.37,1.63,5.11,2.25c1.74,0.62,3.51,1.11,5.31,1.46C1991.19,483.47,1993.02,483.71,1994.95,483.56z"/>
						</g>
					</g>
				</g>
			</g>
			<g id="XMLID_2950_">
				<g id="XMLID_2951_">
					<g id="XMLID_2952_">
						<g id="XMLID_2953_">
							<g id="XMLID_2954_">
								<path id="XMLID_2955_" d="M1997.49,477.32c-1.16-1.15-2.4-1.91-3.65-2.58c-1.26-0.65-2.55-1.14-3.86-1.52
									c-1.31-0.37-2.65-0.62-4.02-0.71c-1.37-0.07-2.77-0.05-4.23,0.36c1.16,1.15,2.39,1.92,3.65,2.58
									c1.26,0.65,2.55,1.15,3.86,1.51c1.31,0.37,2.66,0.61,4.02,0.71C1994.63,477.75,1996.02,477.73,1997.49,477.32z"/>
							</g>
						</g>
					</g>
				</g>
			</g>
		</g>
		<g id="XMLID_2944_">
			<g id="XMLID_2945_">
				<g id="XMLID_2946_">
					<g id="XMLID_2947_">
						<path id="XMLID_2948_" d="M1928.86,282.26c-7.41-4.4-15.17-7.99-23.08-10.99c-7.91-3-16-5.4-24.23-7.04
							c-8.23-1.53-16.61-2.37-25.01-1.93c-8.39,0.4-16.8,2.02-24.83,5.31c-4.04,1.55-7.9,3.72-11.67,6.07l-2.74,1.95
							c-0.93,0.64-1.83,1.31-2.67,2.05l-5.15,4.29c-1.75,1.38-3.38,2.95-5.02,4.51l-4.93,4.66l-4.7,4.97
							c-1.54,1.69-3.18,3.26-4.62,5.07c-12.02,13.92-22.46,29.68-31.43,46.5c-8.89,16.88-16.33,34.82-22.23,53.44
							c-5.85,18.64-10.28,37.91-13.25,57.43c-3.03,19.33-6.72,38.53-11.27,57.44c-4.55,18.9-9.87,37.63-17.2,55.33
							c4.23-8.5,7.65-17.54,10.84-26.66c3.17-9.14,6-18.45,8.63-27.84c5.12-18.83,9.33-38.01,12.71-57.4
							c6.62-38.4,18.28-75.65,35.86-108.67c8.71-16.53,18.91-31.95,30.53-45.67c1.39-1.8,2.97-3.35,4.45-5.02l4.53-4.93l4.75-4.61
							c1.58-1.55,3.15-3.1,4.84-4.48l4.97-4.26c1.64-1.49,3.4-2.57,5.08-3.9c3.51-2.31,7.12-4.47,10.94-6.04
							c3.77-1.72,7.71-2.89,11.67-3.9c3.99-0.88,8.02-1.58,12.08-1.89c8.13-0.74,16.35-0.2,24.5,0.96
							C1897.52,269.39,1913.56,274.76,1928.86,282.26z"/>
					</g>
				</g>
			</g>
		</g>
		<g id="XMLID_2939_">
			<g id="XMLID_2940_">
				<g id="XMLID_2941_">
					<g id="XMLID_2942_">
						<path id="XMLID_2943_" d="M1962.39,548.99c-5.42-3.24-10.92-6.29-16.42-9.31c-5.5-3.02-11.06-5.88-16.59-8.83
							c-5.58-2.81-11.13-5.69-16.74-8.43l-8.42-4.07c-2.83-1.29-5.64-2.64-8.49-3.88c2.71,1.64,5.45,3.16,8.18,4.75l8.24,4.56
							c5.51,3.02,11.06,5.89,16.59,8.83c5.58,2.8,11.13,5.69,16.74,8.43C1951.08,543.77,1956.7,546.48,1962.39,548.99z"/>
					</g>
				</g>
			</g>
		</g>
		<g id="XMLID_475_">
			<g id="XMLID_2933_">
				<g id="XMLID_2934_">
					<g id="XMLID_2935_">
						<g id="XMLID_2936_">
							<g id="XMLID_2937_">
								<path id="XMLID_2938_" d="M1853.57,330.56c-2.33,6.39-4.19,12.9-5.9,19.47c-1.73,6.56-3.22,13.18-4.59,19.85
									c-1.35,6.67-2.57,13.38-3.55,20.15c-1.01,6.77-1.86,13.58-2.24,20.53c2.34-6.38,4.2-12.9,5.9-19.47
									c1.73-6.56,3.23-13.18,4.59-19.85c1.35-6.67,2.57-13.38,3.55-20.15C1852.34,344.32,1853.19,337.51,1853.57,330.56z"/>
							</g>
						</g>
					</g>
				</g>
			</g>
			<g id="XMLID_2928_">
				<g id="XMLID_2929_">
					<g id="XMLID_2930_">
						<g id="XMLID_2931_">
							<path id="XMLID_2932_" d="M1851.49,327.38c-2.91,6.79-5.38,13.75-7.72,20.76c-1.21,3.48-2.27,7.03-3.42,10.52l-1.65,5.22
								l-0.41,1.23l-0.45,1.26l-0.28,0.85l-0.2,0.71l-0.39,1.4c-1.84,7.34-3.22,14.67-4.49,22.08c-1.25,7.41-2.3,14.87-2.86,22.47
								c2.52-7.01,4.59-14.15,6.52-21.33c1.94-7.16,3.71-14.43,5.46-21.54l0.33-1.29l0.17-0.64l0.14-0.47
								c0.05-0.23,0.28-0.85,0.45-1.35l0.44-1.4c0.55-1.83,1.08-3.61,1.54-5.42c0.91-3.63,1.88-7.22,2.67-10.88
								C1849.01,342.27,1850.49,334.91,1851.49,327.38z"/>
						</g>
					</g>
				</g>
			</g>
			<g id="XMLID_2923_">
				<g id="XMLID_2924_">
					<g id="XMLID_2925_">
						<g id="XMLID_2926_">
							<path id="XMLID_2927_" d="M1849.41,324.19c-3.57,7.15-6.72,14.5-9.74,21.91c-1.55,3.68-2.95,7.44-4.44,11.14l-2.16,5.56
								c-0.68,1.65-1.57,3.96-2.13,5.9c-2.3,7.98-3.94,15.95-5.47,24.03c-1.5,8.06-2.77,16.19-3.54,24.46
								c2.71-7.67,4.99-15.45,7.17-23.26c2.19-7.78,4.22-15.7,6.39-23.3c0.54-1.96,1.07-3.41,1.87-5.48
								c0.7-1.92,1.41-3.81,2.05-5.73c1.26-3.85,2.58-7.67,3.72-11.57C1845.51,340.1,1847.69,332.26,1849.41,324.19z"/>
						</g>
					</g>
				</g>
			</g>
			<g id="XMLID_2918_">
				<g id="XMLID_2919_">
					<g id="XMLID_2920_">
						<g id="XMLID_2921_">
							<path id="XMLID_2922_" d="M1847.34,321.01c-4.29,7.44-8.15,15.16-11.86,22.96c-1.9,3.88-3.64,7.85-5.46,11.78
								c-0.9,1.97-1.74,3.97-2.62,5.96c-0.85,1.89-1.77,4.22-2.43,6.32c-2.66,8.61-4.69,17.22-6.46,25.97
								c-1.77,8.74-3.28,17.54-4.25,26.51c2.91-8.34,5.43-16.79,7.87-25.24c1.26-4.21,2.39-8.47,3.63-12.67
								c1.19-4.22,2.38-8.44,3.71-12.49c1.16-3.95,3.06-7.9,4.64-11.96c1.58-4.06,3.23-8.08,4.72-12.18
								C1841.91,337.81,1844.83,329.54,1847.34,321.01z"/>
						</g>
					</g>
				</g>
			</g>
			<g id="XMLID_2913_">
				<g id="XMLID_2914_">
					<g id="XMLID_2915_">
						<g id="XMLID_2916_">
							<path id="XMLID_2917_" d="M1845.25,317.83c-5.12,7.62-9.77,15.61-14.19,23.78c-4.37,8.25-8.7,16.4-12.03,25.7
								c-3.06,9.21-5.39,18.51-7.45,27.94c-2.05,9.42-3.81,18.92-4.99,28.58c3.12-9.02,5.89-18.14,8.6-27.26l4.08-13.64
								c1.34-4.54,2.7-9.07,4.23-13.43c1.4-4.34,3.3-8.53,5.16-12.81l5.64-12.82C1838.09,335.31,1841.84,326.7,1845.25,317.83z"/>
						</g>
					</g>
				</g>
			</g>
			<g id="XMLID_2908_">
				<g id="XMLID_2909_">
					<g id="XMLID_2910_">
						<g id="XMLID_2911_">
							<path id="XMLID_2912_" d="M1843.17,314.65c-5.98,7.72-11.43,15.97-16.54,24.53c-5.07,8.57-9.92,17.46-13.51,27.36
								c-3.42,9.83-6.09,19.81-8.44,29.93c-2.33,10.11-4.36,20.31-5.77,30.69c3.35-9.72,6.37-19.52,9.37-29.31
								c1.56-4.87,2.95-9.8,4.54-14.63c1.52-4.85,3.03-9.73,4.75-14.41c1.61-4.71,3.6-9.2,5.71-13.72
								c2.06-4.54,4.32-8.97,6.51-13.47C1834.25,332.68,1838.81,323.77,1843.17,314.65z"/>
						</g>
					</g>
				</g>
			</g>
			<g id="XMLID_1698_">
				<g id="XMLID_1699_">
					<g id="XMLID_1700_">
						<g id="XMLID_1701_">
							<path id="XMLID_2881_" d="M1841.09,311.46c-6.88,7.74-13.14,16.21-18.91,25.17c-2.92,4.45-5.62,9.12-8.18,13.92
								c-2.53,4.82-4.8,9.95-6.75,15.15c-1.89,5.23-3.55,10.52-5.14,15.84c-1.5,5.35-3.01,10.69-4.29,16.1
								c-2.64,10.8-4.93,21.72-6.58,32.82c3.58-10.43,6.87-20.92,10.16-31.4c1.7-5.21,3.27-10.47,5.01-15.64
								c1.7-5.18,3.37-10.38,5.27-15.41c1.8-5.08,3.91-9.88,6.23-14.66c2.26-4.81,4.83-9.45,7.34-14.14
								C1830.36,329.91,1835.74,320.75,1841.09,311.46z"/>
						</g>
					</g>
				</g>
			</g>
			<g id="XMLID_1693_">
				<g id="XMLID_1694_">
					<g id="XMLID_1695_">
						<g id="XMLID_1696_">
							<path id="XMLID_1697_" d="M1839.01,308.28c-7.8,7.67-14.88,16.34-21.31,25.71c-3.23,4.67-6.24,9.57-9.03,14.7
								c-2.75,5.13-5.17,10.64-7.28,16.15c-2.03,5.57-3.9,11.18-5.65,16.84c-1.65,5.7-3.35,11.37-4.77,17.15
								c-2.95,11.5-5.52,23.14-7.42,34.97c3.83-11.15,7.39-22.34,10.99-33.5c3.64-11.13,7.21-22.29,11.26-33.1
								c3.91-10.81,9.15-20.75,14.89-30.49C1826.45,327,1832.65,317.62,1839.01,308.28z"/>
						</g>
					</g>
				</g>
			</g>
			<g id="XMLID_00000128458412491566130030000008286096882546051475_">
				<g id="XMLID_00000171685193137530071750000009507942312730507188_">
					<g id="XMLID_1689_">
						<g id="XMLID_1691_">
							<path id="XMLID_1692_" d="M1836.93,305.1c-8.73,7.51-16.63,16.4-23.71,26.17c-3.56,4.88-6.83,10.07-9.85,15.49
								c-2.96,5.45-5.55,11.32-7.81,17.16c-2.17,5.91-4.26,11.85-6.15,17.86c-1.83,6.04-3.68,12.06-5.26,18.19
								c-3.27,12.21-6.12,24.57-8.28,37.14c4.08-11.87,7.92-23.78,11.83-35.63c1.99-5.91,3.9-11.85,5.97-17.71
								c2-5.89,4.08-11.72,6.29-17.47c2.15-5.81,4.55-11.27,7.27-16.64c2.69-5.38,5.79-10.49,8.92-15.58
								C1822.54,323.99,1829.54,314.39,1836.93,305.1z"/>
						</g>
					</g>
				</g>
			</g>
			<g id="XMLID_00000060737403025302321830000017210899401165114786_">
				<g id="XMLID_00000172416005280498308740000000901345991405461145_">
					<g id="XMLID_00000159451572973144009520000013185479586718898608_">
						<g id="XMLID_00000117659390806058866350000016946233383876629150_">
							<path id="XMLID_00000047755041480624025540000007549770414812922804_" d="M1834.85,301.92c-4.87,3.57-9.4,7.78-13.77,12.21
								c-4.32,4.49-8.5,9.22-12.33,14.36c-3.87,5.1-7.4,10.58-10.66,16.3c-3.16,5.79-5.93,12.01-8.33,18.18
								c-4.74,12.47-8.85,25.2-12.41,38.14c-3.59,12.92-6.74,26.01-9.15,39.33c4.33-12.6,8.47-25.22,12.7-37.78
								c2.15-6.26,4.21-12.55,6.46-18.75c2.15-6.24,4.42-12.41,6.79-18.52c2.3-6.18,4.87-11.97,7.78-17.66
								c2.93-5.67,6.25-11.04,9.69-16.34C1818.64,320.91,1826.42,311.07,1834.85,301.92z"/>
						</g>
					</g>
				</g>
			</g>
			<g id="XMLID_00000025436895604404945540000011681868102386541734_">
				<g id="XMLID_00000038405304180796703190000012228049516357229199_">
					<g id="XMLID_00000002372841559253773010000008071162906401440688_">
						<g id="XMLID_00000143610545902737537130000006306888716490378635_">
							<path id="XMLID_00000070119705009509802760000015352542242923194258_" d="M1832.78,298.73c-5.34,3.42-10.3,7.63-15.07,12.12
								c-4.73,4.55-9.25,9.45-13.42,14.79c-4.19,5.31-7.96,11.1-11.46,17.12c-3.35,6.12-6.31,12.69-8.85,19.22
								c-5.08,13.15-9.51,26.6-13.4,40.25c-3.9,13.64-7.37,27.46-10.05,41.53l13.58-39.95c2.32-6.61,4.54-13.27,6.95-19.82
								c2.33-6.59,4.75-13.12,7.3-19.58c2.45-6.56,5.2-12.67,8.3-18.69c3.15-5.96,6.71-11.61,10.45-17.12
								c3.81-5.44,7.87-10.66,12.16-15.64C1823.53,307.95,1828.03,303.2,1832.78,298.73z"/>
						</g>
					</g>
				</g>
			</g>
			<g id="XMLID_00000008848781574403345640000009886849883583026099_">
				<g id="XMLID_00000024705758986048664090000014782631130082644359_">
					<g id="XMLID_00000013909198702527371780000014891568395618016447_">
						<g id="XMLID_00000085209682723818659620000018372312161975016584_">
							<path id="XMLID_00000006691266123508476300000005177977446546560432_" d="M1830.69,295.55c-5.79,3.23-11.19,7.43-16.36,11.98
								c-5.13,4.61-10,9.68-14.5,15.21c-4.5,5.54-8.51,11.62-12.25,17.96c-3.55,6.45-6.71,13.38-9.38,20.26
								c-5.41,13.85-10.17,28.01-14.4,42.38c-4.22,14.37-8.01,28.92-10.96,43.74l14.48-42.13c2.5-6.96,4.86-13.99,7.45-20.88
								c2.5-6.94,5.08-13.84,7.8-20.65c2.6-6.94,5.53-13.37,8.83-19.72c3.38-6.26,7.17-12.2,11.21-17.92
								c4.13-5.63,8.53-11.02,13.22-16.06C1820.51,304.63,1825.45,299.88,1830.69,295.55z"/>
						</g>
					</g>
				</g>
			</g>
			<g id="XMLID_00000039136168411136730000000005475242231182453144_">
				<g id="XMLID_00000174594302546727985570000009947753700623951766_">
					<g id="XMLID_00000114772145061621037340000017054788137431755678_">
						<g id="XMLID_00000002355982427831686920000016188236265502747289_">
							<path id="XMLID_00000127026535238946682060000008621235384287124128_" d="M1828.62,292.37c-6.24,3.03-12.07,7.21-17.64,11.8
								c-5.53,4.66-10.75,9.89-15.57,15.64c-4.83,5.74-9.08,12.14-13.04,18.79l-2.75,5.17c-0.95,1.7-1.75,3.5-2.56,5.31
								c-0.8,1.8-1.64,3.59-2.42,5.4l-2.2,5.43c-5.75,14.55-10.82,29.43-15.39,44.52c-4.54,15.1-8.65,30.38-11.88,45.96l15.39-44.32
								c2.67-7.32,5.19-14.71,7.95-21.96c2.68-7.3,5.41-14.57,8.3-21.73c2.75-7.32,5.86-14.08,9.36-20.76
								c3.6-6.56,7.61-12.8,11.97-18.73c4.44-5.83,9.17-11.38,14.27-16.48C1817.49,301.27,1822.87,296.52,1828.62,292.37z"/>
						</g>
					</g>
				</g>
			</g>
			<g id="XMLID_476_">
				<g id="XMLID_00000004535835551425955760000004484281848470162853_">
					<g id="XMLID_00000165913013720840425100000007710062702921494164_">
						<g id="XMLID_00000011753185957373573350000006141149316620338602_">
							<g id="XMLID_00000028305062974835656380000017620354547474017153_">
								<path id="XMLID_00000029754735723996375430000010219296421835182764_" d="M1826.54,289.18c-6.68,2.81-12.94,6.96-18.9,11.59
									c-5.93,4.71-11.51,10.09-16.63,16.06c-5.16,5.95-9.64,12.67-13.84,19.63l-2.9,5.42c-1,1.78-1.86,3.67-2.7,5.57l-2.55,5.67
									l-2.32,5.7c-3.01,7.64-5.89,15.36-8.64,23.13c-2.68,7.81-5.33,15.63-7.75,23.56c-4.87,15.83-9.3,31.85-12.82,48.19
									c5.42-15.57,10.82-31.08,16.32-46.52c2.82-7.69,5.53-15.42,8.44-23.05c2.86-7.66,5.74-15.29,8.8-22.83l2.24-5.68l2.41-5.47
									c1.5-3.72,3.52-7.08,5.25-10.65c3.83-6.86,8.06-13.42,12.74-19.54c4.74-6.04,9.83-11.75,15.32-16.9
									C1814.49,297.88,1820.3,293.15,1826.54,289.18z"/>
							</g>
						</g>
					</g>
				</g>
			</g>
		</g>
		<g id="XMLID_00000101074970801803502470000013427433558741540017_">
			<g id="XMLID_00000112609911170780364990000012716235403063721140_">
				<g id="XMLID_458_">
					<g id="XMLID_459_">
						<path id="XMLID_460_" class="st4" d="M1829.34,563.68c-4.87,1.78-9.68,3.75-14.48,5.75c-4.81,1.98-9.57,4.11-14.33,6.23
							c-4.75,2.17-9.5,4.34-14.2,6.65l-7.05,3.47c-2.33,1.22-4.68,2.39-6.99,3.66c2.44-0.87,4.85-1.86,7.27-2.78l7.21-2.97
							c4.81-1.98,9.57-4.11,14.33-6.24c4.75-2.17,9.5-4.34,14.2-6.65C1820,568.52,1824.7,566.2,1829.34,563.68z"/>
					</g>
				</g>
			</g>
		</g>
		<g id="XMLID_438_">
			<g id="XMLID_439_">
				<g id="XMLID_00000062162356511977399050000002650791957414825380_">
					<g id="XMLID_00000147905807738428849960000008112777385313664426_">
						<path id="XMLID_00000102534042154684462880000016416253986589006985_" class="st4" d="M1819.82,534.19
							c-4.75,1.73-9.45,3.67-14.13,5.63c-4.69,1.94-9.33,4.02-13.98,6.11c-4.63,2.13-9.26,4.26-13.84,6.52l-6.87,3.41
							c-2.27,1.2-4.56,2.34-6.81,3.6c2.38-0.85,4.73-1.81,7.1-2.72l7.03-2.91c4.69-1.94,9.33-4.02,13.97-6.11
							c4.63-2.13,9.26-4.26,13.84-6.53C1810.72,538.95,1815.3,536.67,1819.82,534.19z"/>
					</g>
				</g>
			</g>
		</g>
		<g id="XMLID_424_">
			<g id="XMLID_426_">
				<g id="XMLID_434_">
					<g id="XMLID_435_">
						<path id="XMLID_436_" class="st4" d="M1811.17,506.98c-4.82,1.64-9.59,3.47-14.34,5.33c-4.76,1.84-9.48,3.83-14.2,5.82
							c-4.7,2.03-9.41,4.06-14.07,6.24l-6.99,3.27c-2.31,1.15-4.64,2.25-6.93,3.46c2.42-0.8,4.8-1.72,7.2-2.57l7.15-2.76
							c4.76-1.84,9.48-3.83,14.2-5.82c4.7-2.03,9.41-4.07,14.07-6.24C1801.91,511.54,1806.57,509.36,1811.17,506.98z"/>
					</g>
				</g>
			</g>
		</g>
		<g id="XMLID_419_">
			<g id="XMLID_420_">
				<g id="XMLID_421_">
					<g id="XMLID_422_">
						<path id="XMLID_423_" class="st4" d="M1810.85,552.88c-5.2,1.43-10.24,3.4-15.24,5.51c-4.98,2.16-9.92,4.46-14.69,7.32
							c5.21-1.42,10.24-3.4,15.24-5.51C1801.14,558.03,1806.08,555.73,1810.85,552.88z"/>
					</g>
				</g>
			</g>
		</g>
		<g id="XMLID_414_">
			<g id="XMLID_415_">
				<g id="XMLID_416_">
					<g id="XMLID_417_">
						<path id="XMLID_418_" class="st4" d="M1800.72,528.41c-4.56,1.07-8.96,2.7-13.32,4.46c-4.34,1.81-8.65,3.77-12.8,6.28
							c4.56-1.07,8.96-2.7,13.32-4.46C1792.27,532.87,1796.57,530.91,1800.72,528.41z"/>
					</g>
				</g>
			</g>
		</g>
		<g id="XMLID_400_">
			<g id="XMLID_401_">
				<g id="XMLID_402_">
					<g id="XMLID_403_">
						<path id="XMLID_00000033341203265282765680000017070299641841483392_" class="st2" d="M2023.47,455.98
							c-3.44,8.99-6.66,18.09-9.88,27.18c-3.19,9.11-6.31,18.25-9.38,27.41c-3.05,9.17-6.08,18.35-9.04,27.56
							c-2.92,9.22-5.92,18.42-8.75,27.69l0.87-1.33c-5.68,4.78-11.39,9.54-17.02,14.42c-5.66,4.83-11.29,9.71-16.88,14.64
							c-5.62,4.89-11.17,9.91-16.72,14.92c-5.54,5.04-11.06,10.1-16.49,15.32c5.98-4.28,11.87-8.71,17.75-13.16
							c5.86-4.49,11.72-8.97,17.51-13.57c5.82-4.55,11.6-9.17,17.35-13.84c5.78-4.62,11.49-9.35,17.22-14.07l0.6-0.49l0.27-0.84
							c2.97-9.2,5.78-18.48,8.66-27.73c2.85-9.26,5.61-18.56,8.37-27.86c2.73-9.31,5.42-18.65,8.03-28.01
							C2018.53,474.84,2021.11,465.46,2023.47,455.98z"/>
					</g>
				</g>
			</g>
		</g>
		<g id="XMLID_394_">
			<g id="XMLID_395_">
				<g id="XMLID_396_">
					<g id="XMLID_398_">
						<path id="XMLID_399_" class="st2" d="M1966.93,306.42c-8.09,2-16.04,4.53-23.92,7.25c-3.96,1.31-7.87,2.82-11.79,4.23
							l-11.7,4.54l-11.62,4.83c-3.84,1.72-7.72,3.33-11.53,5.14c-7.66,3.53-15.27,7.25-22.72,11.51c8.1-1.99,16.04-4.52,23.93-7.25
							c3.96-1.31,7.86-2.82,11.79-4.23l11.7-4.55l11.62-4.84c3.85-1.71,7.72-3.33,11.53-5.15
							C1951.87,314.4,1959.48,310.68,1966.93,306.42z"/>
					</g>
				</g>
			</g>
		</g>
		<g id="XMLID_00000011721199645497300630000003008065916696845992_">
			<g id="XMLID_00000009562040751827470090000017293346468693806253_">
				<g id="XMLID_00000080915468862474167080000012733014538038501260_">
					<g id="XMLID_390_">
						<path id="XMLID_393_" class="st4" d="M1902.49,627.29c-15.09,1.74-30.14,3.89-45.1,7.1c-3.74,0.81-7.48,1.67-11.2,2.85
							c-3.73,1.18-7.32,2.64-10.93,4.03c-7.2,2.86-14.33,5.91-21.47,8.93c-14.24,6.19-28.41,12.59-42.44,19.45
							c-7.02,3.41-13.99,6.97-20.91,10.67c-3.45,1.89-6.88,3.81-10.27,5.84c-3.4,2-6.76,4.14-9.92,6.64
							c6.71-4.19,13.75-7.49,20.81-10.74c7.04-3.29,14.12-6.46,21.21-9.62c14.19-6.28,28.39-12.51,42.62-18.63
							c7.11-3.09,14.23-6.14,21.36-9.11c3.57-1.47,7.13-3.01,10.7-4.23c3.58-1.2,7.26-2.2,10.94-3.15
							c7.38-1.87,14.81-3.56,22.26-5.19C1887.57,630.43,1895.03,628.94,1902.49,627.29z"/>
					</g>
				</g>
			</g>
		</g>
		<g id="XMLID_00000059304908381733870610000003952724588953458572_">
			<g id="XMLID_00000127008940454982413980000004266037763998653824_">
				<g id="XMLID_00000127741777274512889830000008170765593005529754_">
					<g id="XMLID_00000159434986127788000770000016142550051346145947_">
						<g id="XMLID_00000142881418881037132040000016112534735303313282_">
							<g id="XMLID_00000097474446219703484880000008993753399841660045_">
								<path id="XMLID_00000123401528535077414200000002985438598435297459_" class="st4" d="M1893.57,669.78
									c-1.65-1.48-3.83-1.92-5.87-1.98c-2.07-0.04-4.14,0.35-6.11,1.04c-1,0.31-1.94,0.79-2.9,1.2c-0.92,0.51-1.86,0.99-2.76,1.56
									c-0.88,0.6-1.77,1.2-2.62,1.85c-0.83,0.7-1.66,1.4-2.44,2.16c0.97-0.4,1.89-0.87,2.81-1.33l2.77-1.33
									c1.86-0.82,3.69-1.66,5.58-2.27c1.87-0.7,3.78-1.14,5.71-1.39C1889.67,669.09,1891.65,669.04,1893.57,669.78z"/>
							</g>
						</g>
					</g>
				</g>
			</g>
			<g id="XMLID_00000114059140111502758070000010265015456155098024_">
				<g id="XMLID_00000093856262547188134250000014433410606180336274_">
					<g id="XMLID_00000132783534839162182900000010930856049579965600_">
						<g id="XMLID_00000107583524487332578050000005882618538279855805_">
							<path id="XMLID_00000045587434887201952830000013912750288447484079_" class="st4" d="M1892.78,660.09
								c-2.04-0.94-4.24-1.39-6.43-1.49c-2.2-0.11-4.42,0.09-6.58,0.62c-2.15,0.57-4.29,1.3-6.26,2.46
								c-2.01,1.06-3.84,2.54-5.54,4.16c2.02-0.98,3.99-1.98,6.01-2.77c2-0.84,4.05-1.46,6.11-1.97c2.06-0.54,4.16-0.81,6.27-1.01
								C1888.48,659.95,1890.61,659.88,1892.78,660.09z"/>
						</g>
					</g>
				</g>
			</g>
			<g id="XMLID_00000179631581261910743500000015539611334100361620_">
				<g id="XMLID_00000039829058960565643100000008698696039174769804_">
					<g id="XMLID_00000132794862724406150210000011620100813592648366_">
						<g id="XMLID_00000155840197360256241190000002812826006239852424_">
							<g id="XMLID_00000095323009788953861790000016673167336260797355_">
								<path id="XMLID_00000064334791389637506100000012753310512705983934_" class="st4" d="M1891.99,650.4
									c-4.57-1.27-9.32-1.33-13.98-0.61c-2.33,0.43-4.64,1.07-6.86,2.05c-2.21,1.02-4.3,2.42-6.08,4.23
									c2.13-1.18,4.28-2.05,6.47-2.8c2.21-0.66,4.44-1.19,6.69-1.58c2.26-0.39,4.54-0.63,6.83-0.84
									C1887.35,650.68,1889.66,650.5,1891.99,650.4z"/>
							</g>
						</g>
					</g>
				</g>
			</g>
		</g>
	</g>
	<g id="XMLID_00000012435962486514037240000008820613770553905037_">
		<path id="XMLID_00000112600845780724655330000013720803536077366176_" class="st3" d="M1846.56,1059.29
			c14.63-23.64,59.48-24.67,92.49-15.35c14.66-48.21,23.92-99.53,26.87-152.89c-34.79-7.68-79.92-31.25-79.92-63.5
			c0-30.39,40.06-59.71,73.79-71.74c-3.52-23.81-8.32-47.09-14.29-69.75l-47.37,35.04l-9.45,1.09c0.18,22.35-8.31,39.02-24.18,46.13
			c-3.99,1.79-8,2.7-11.9,2.7c-15.32,0-27.46-13.24-34.51-36.98c-7.2,2.76-14.49,5.58-21.73,8.41
			c9.21,35.12,14.18,72.47,14.18,111.2c0,57.36-10.89,111.68-30.33,160.19L1846.56,1059.29z"/>
		<path id="XMLID_00000178921106695258977750000016609222502114301608_" class="st3" d="M1186.51,853.66
			c0-22.09,1.62-43.72,4.72-64.75l-49.15-33.66l-0.64-0.53c-0.05-0.04-13.76-10.87-33.33-10.87c-9.8,0-19.56,2.71-29.01,8.04
			c-16.2,9.15-30.82,14.97-43.68,17.41c-1.96,15.45-3.41,31.11-4.29,46.95c34.76,7.68,79.9,31.25,79.9,63.5
			c0.03,30.38-40.06,59.71-73.77,71.74c7.75,52.39,21.64,102.23,40.73,148.47c27.17-11.49,64.75-17.93,85.06-4.8
			c19.37-18.8,40.4-39.21,62.67-60.82C1200.76,980.84,1186.51,919.24,1186.51,853.66z"/>
		<path id="XMLID_00000132079700348464570860000008891412519813835401_" class="st3" d="M1811.27,1226.68
			c-2-8.88-18.61-25.86-32.11-35.11l-78.93-54.06c-54.39,55.02-124.79,88.23-201.7,88.23c-58.71,0-113.62-19.35-160.52-52.97
			l-0.51,0.55c-44.34,48.19-85.76,93.21-118.47,128.62c6.09,5.41,12.29,10.66,18.61,15.72c23-32.05,62.7-66.89,86.12-50.76
			c22.08,15.19,23.33,71.24,15.19,112.1c40.45,17.49,83.46,28.52,128.21,32.05c6.47-41.46,26.23-95.31,53.27-95.31
			c25.48,0,50.04,47.77,60.13,88c43.94-9.24,85.75-25.8,124.53-48.57c-11.82-39.76-17.31-98.24,6.13-114.4
			c22.05-15.19,63.31,11.5,88.93,40.29c6.63-6.65,13.1-13.53,19.41-20.61C1816.79,1250.18,1814.04,1238.96,1811.27,1226.68z"/>
		<path id="XMLID_00000092439100372455916520000015920172559659343006_" class="st3" d="M1194.68,597.24
			c1.82,13.33,18.83,28.66,26.78,33.99l19.1,13.08c56.17-98.24,150.75-162.75,257.97-162.75c64.65,0,124.72,23.45,174.53,63.62
			c3.47-13.27,6.93-28.27,10.32-45.28c4.1-20.55,9.44-39.84,15.88-57.76c-9.58,3.36-18.57,3.34-25.95-1.74
			c-22.08-15.19-23.31-71.28-15.19-112.13c-40.45-17.45-83.46-28.49-128.21-32.02c-6.44,41.46-26.23,95.31-53.27,95.31
			c-25.48,0-50.04-47.77-60.13-88c-43.93,9.24-85.75,25.8-124.53,48.57c11.85,39.8,17.31,98.28-6.13,114.4
			c-22.05,15.19-63.31-11.5-88.93-40.26c-17.09,17.15-33.13,35.75-48,55.63C1180.11,515.26,1191.14,571.41,1194.68,597.24z"/>
	</g>
	<text transform="matrix(0.7495 0 0 1 647.8167 1024.1782)" class="st5 st6 st7">PRIX</text>
	<text transform="matrix(0.4858 0 0 1 793.9163 1279.6938)" class="st8 st6 st9">MOTORSPORTS</text>
</g>
</svg>
